a1000-p1000.ufo
<glyph name="dollar" format="1">
  <advance width="726"/>
  <unicode hex="0024"/>
  <outline>
    <contour>
      <point x="257" y="-150" type="line"/>
      <point x="471" y="-150" type="line"/>
      <point x="471" y="104" type="line"/>
      <point x="257" y="102" type="line"/>
    </contour>
    <contour>
      <point x="244" y="658" type="line"/>
      <point x="458" y="668" type="line"/>
      <point x="458" y="890" type="line"/>
      <point x="244" y="890" type="line"/>
    </contour>
    <component base="S" xOffset="3"/>
  </outline>
</glyph>
<glyph name="ampersand" format="1">
  <advance width="874"/>
  <unicode hex="0026"/>
  <outline>
    <contour>
      <point x="787" y="36" type="line"/>
      <point x="799" y="36" type="line"/>
      <point x="881" y="188" type="line"/>
      <point x="881" y="204" type="line"/>
      <point x="541" y="377" type="line"/>
      <point x="411" y="442"/>
      <point x="346" y="496"/>
      <point x="346" y="538" type="curve" smooth="yes"/>
      <point x="346" y="582"/>
      <point x="379" y="602"/>
      <point x="451" y="602" type="curve" smooth="yes"/>
      <point x="499" y="602"/>
      <point x="570" y="591"/>
      <point x="627" y="574" type="curve"/>
      <point x="638" y="574" type="line"/>
      <point x="660" y="719" type="line"/>
      <point x="656" y="725" type="line"/>
      <point x="575" y="742"/>
      <point x="495" y="752"/>
      <point x="424" y="752" type="curve" smooth="yes"/>
      <point x="230" y="752"/>
      <point x="106" y="674"/>
      <point x="106" y="553" type="curve" smooth="yes"/>
      <point x="106" y="457"/>
      <point x="196" y="372"/>
      <point x="450" y="228" type="curve" smooth="yes"/>
    </contour>
    <contour>
      <point x="389" y="-9" type="curve" smooth="yes"/>
      <point x="638" y="-9"/>
      <point x="791" y="126"/>
      <point x="791" y="344" type="curve" smooth="yes"/>
      <point x="791" y="447" type="line"/>
      <point x="581" y="447" type="line"/>
      <point x="581" y="342" type="line" smooth="yes"/>
      <point x="581" y="203"/>
      <point x="525" y="138"/>
      <point x="406" y="138" type="curve" smooth="yes"/>
      <point x="330" y="138"/>
      <point x="279" y="171"/>
      <point x="279" y="219" type="curve" smooth="yes"/>
      <point x="279" y="262"/>
      <point x="301" y="288"/>
      <point x="346" y="300" type="curve"/>
      <point x="259" y="408" type="line"/>
      <point x="230" y="405" type="line"/>
      <point x="113" y="389"/>
      <point x="38" y="311"/>
      <point x="38" y="206" type="curve" smooth="yes"/>
      <point x="38" y="75"/>
      <point x="175" y="-9"/>
    </contour>
  </outline>
</glyph>
<glyph name="comma" format="1">
  <advance width="329"/>
  <unicode hex="002C"/>
  <outline>
    <contour>
      <point x="193" y="-155" type="line"/>
      <point x="294" y="217" type="line"/>
      <point x="64" y="217" type="line"/>
      <point x="22" y="-145" type="line"/>
    </contour>
  </outline>
</glyph>
<glyph name="less" format="1">
  <advance width="572"/>
  <unicode hex="003C"/>
  <outline>
    <contour>
      <point x="29" y="320" type="line"/>
      <point x="118" y="320" type="line"/>
      <point x="512" y="489" type="line"/>
      <point x="512" y="636" type="line"/>
      <point x="29" y="429" type="line"/>
    </contour>
    <contour>
      <point x="512" y="90" type="line"/>
      <point x="512" y="237" type="line"/>
      <point x="118" y="406" type="line"/>
      <point x="29" y="406" type="line"/>
      <point x="29" y="297" type="line"/>
    </contour>
  </outline>
</glyph>
<glyph name="D" format="1">
  <advance width="851"/>
  <unicode hex="0044"/>
  <outline>
    <contour>
      <point x="387" y="885" type="move" name="topUC"/>
    </contour>
    <contour>
      <point x="397" y="-110" type="move" name="bottom"/>
    </contour>
    <contour>
      <point x="312" y="-10" type="curve" smooth="yes"/>
      <point x="676" y="-10"/>
      <point x="818" y="96"/>
      <point x="818" y="369" type="curve" smooth="yes"/>
      <point x="818" y="633"/>
      <point x="680" y="750"/>
      <point x="369" y="750" type="curve" smooth="yes"/>
      <point x="298" y="750"/>
      <point x="204" y="746"/>
      <point x="65" y="738" type="curve"/>
      <point x="65" y="3" type="line"/>
      <point x="118" y="-5"/>
      <point x="220" y="-10"/>
    </contour>
    <contour>
      <point x="410" y="173" type="curve" smooth="yes"/>
      <point x="372" y="173"/>
      <point x="329" y="176"/>
      <point x="300" y="181" type="curve"/>
      <point x="300" y="561" type="line"/>
      <point x="352" y="565"/>
      <point x="380" y="566"/>
      <point x="404" y="566" type="curve" smooth="yes"/>
      <point x="535" y="566"/>
      <point x="578" y="517"/>
      <point x="578" y="369" type="curve" smooth="yes"/>
      <point x="578" y="217"/>
      <point x="540" y="173"/>
    </contour>
  </outline>
</glyph>
<glyph name="F" format="1">
  <advance width="706"/>
  <unicode hex="0046"/>
  <outline>
    <contour>
      <point x="65" y="0" type="line"/>
      <point x="300" y="0" type="line"/>
      <point x="300" y="564" type="line"/>
      <point x="681" y="564" type="line"/>
      <point x="681" y="740" type="line"/>
      <point x="65" y="740" type="line"/>
    </contour>
    <contour>
      <point x="195" y="252" type="line"/>
      <point x="641" y="252" type="line"/>
      <point x="641" y="428" type="line"/>
      <point x="195" y="428" type="line"/>
    </contour>
  </outline>
</glyph>
<glyph name="G" format="1">
  <advance width="771"/>
  <unicode hex="0047"/>
  <outline>
    <contour>
      <point x="414" y="885" type="move" name="topUC"/>
    </contour>
    <contour>
      <point x="424" y="-110" type="move" name="bottom"/>
    </contour>
    <contour>
      <point x="456" y="-15" type="curve" smooth="yes"/>
      <point x="529" y="-15"/>
      <point x="643" y="5"/>
      <point x="724" y="31" type="curve"/>
      <point x="618" y="187" type="line"/>
      <point x="587" y="181"/>
      <point x="504" y="175"/>
      <point x="458" y="175" type="curve" smooth="yes"/>
      <point x="305" y="175"/>
      <point x="274" y="208"/>
      <point x="274" y="369" type="curve" smooth="yes"/>
      <point x="274" y="535"/>
      <point x="307" y="566"/>
      <point x="485" y="566" type="curve" smooth="yes"/>
      <point x="535" y="566"/>
      <point x="616" y="559"/>
      <point x="713" y="545" type="curve"/>
      <point x="713" y="731" type="line"/>
      <point x="655" y="745"/>
      <point x="549" y="755"/>
      <point x="467" y="755" type="curve" smooth="yes"/>
      <point x="174" y="755"/>
      <point x="32" y="629"/>
      <point x="32" y="369" type="curve" smooth="yes"/>
      <point x="32" y="107"/>
      <point x="167" y="-15"/>
    </contour>
    <contour>
      <point x="508" y="31" type="line"/>
      <point x="724" y="31" type="line"/>
      <point x="724" y="376" type="line"/>
      <point x="508" y="376" type="line"/>
    </contour>
  </outline>
</glyph>
<glyph name="asciicircum" format="1">
  <advance width="606"/>
  <unicode hex="005E"/>
  <outline>
    <contour>
      <point x="27" y="481" type="line"/>
      <point x="188" y="481" type="line"/>
      <point x="301" y="660" type="line"/>
      <point x="305" y="660" type="line"/>
      <point x="419" y="481" type="line"/>
      <point x="579" y="481" type="line"/>
      <point x="409" y="789" type="line"/>
      <point x="197" y="789" type="line"/>
    </contour>
  </outline>
</glyph>
<glyph name="underscore" format="1">
  <advance width="723"/>
  <unicode hex="005F"/>
  <outline>
    <contour>
      <point x="41" y="-220" type="line"/>
      <point x="683" y="-220" type="line"/>
      <point x="683" y="-56" type="line"/>
      <point x="41" y="-56" type="line"/>
    </contour>
  </outline>
</glyph>
<glyph name="b" format="1">
  <advance width="736"/>
  <unicode hex="0062"/>
  <outline>
    <contour>
      <point x="366" y="-12" type="curve" smooth="yes"/>
      <point x="571" y="-12"/>
      <point x="706" y="90"/>
      <point x="706" y="283" type="curve" smooth="yes"/>
      <point x="706" y="459"/>
      <point x="620" y="549"/>
      <point x="455" y="549" type="curve" smooth="yes"/>
      <point x="381" y="549"/>
      <point x="322" y="530"/>
      <point x="284" y="484" type="curve"/>
      <point x="284" y="808" type="line"/>
      <point x="54" y="808" type="line"/>
      <point x="54" y="23" type="line"/>
      <point x="237" y="-12"/>
      <point x="298" y="-12"/>
    </contour>
    <contour>
      <point x="361" y="141" type="curve" smooth="yes"/>
      <point x="327" y="141"/>
      <point x="303" y="143"/>
      <point x="284" y="147" type="curve"/>
      <point x="284" y="303" type="line" smooth="yes"/>
      <point x="284" y="354"/>
      <point x="314" y="377"/>
      <point x="386" y="377" type="curve" smooth="yes"/>
      <point x="461" y="377"/>
      <point x="476" y="355"/>
      <point x="476" y="268" type="curve" smooth="yes"/>
      <point x="476" y="159"/>
      <point x="461" y="141"/>
    </contour>
  </outline>
</glyph>
<glyph name="c" format="1">
  <advance width="582"/>
  <unicode hex="0063"/>
  <outline>
    <contour>
      <point x="335" y="674" type="move" name="top"/>
    </contour>
    <contour>
      <point x="345" y="-110" type="move" name="bottom"/>
    </contour>
    <contour>
      <point x="324" y="-9" type="curve" smooth="yes"/>
      <point x="403" y="-9"/>
      <point x="484" y="-2"/>
      <point x="540" y="10" type="curve"/>
      <point x="540" y="187" type="line"/>
      <point x="480" y="179"/>
      <point x="428" y="176"/>
      <point x="344" y="176" type="curve" smooth="yes"/>
      <point x="278" y="176"/>
      <point x="256" y="200"/>
      <point x="256" y="272" type="curve" smooth="yes"/>
      <point x="256" y="343"/>
      <point x="277" y="364"/>
      <point x="346" y="364" type="curve" smooth="yes"/>
      <point x="404" y="364"/>
      <point x="468" y="360"/>
      <point x="540" y="353" type="curve"/>
      <point x="540" y="530" type="line"/>
      <point x="484" y="542"/>
      <point x="403" y="549"/>
      <point x="324" y="549" type="curve" smooth="yes"/>
      <point x="128" y="549"/>
      <point x="31" y="456"/>
      <point x="31" y="270" type="curve" smooth="yes"/>
      <point x="31" y="84"/>
      <point x="128" y="-9"/>
    </contour>
  </outline>
</glyph>
<glyph name="d" format="1">
  <advance width="738"/>
  <unicode hex="0064"/>
  <outline>
    <contour>
      <point x="727" y="674" type="move" name="caronalt"/>
    </contour>
    <contour>
      <point x="355" y="-110" type="move" name="bottom"/>
    </contour>
    <contour>
      <point x="281" y="-11" type="curve" smooth="yes"/>
      <point x="363" y="-11"/>
      <point x="417" y="13"/>
      <point x="454" y="71" type="curve"/>
      <point x="464" y="71" type="line"/>
      <point x="483" y="0" type="line"/>
      <point x="682" y="0" type="line"/>
      <point x="682" y="808" type="line"/>
      <point x="452" y="808" type="line"/>
      <point x="452" y="546" type="line"/>
      <point x="426" y="549"/>
      <point x="399" y="550"/>
      <point x="370" y="550" type="curve" smooth="yes"/>
      <point x="165" y="550"/>
      <point x="30" y="448"/>
      <point x="30" y="255" type="curve" smooth="yes"/>
      <point x="30" y="79"/>
      <point x="116" y="-11"/>
    </contour>
    <contour>
      <point x="350" y="156" type="curve" smooth="yes"/>
      <point x="275" y="156"/>
      <point x="260" y="179"/>
      <point x="260" y="270" type="curve" smooth="yes"/>
      <point x="260" y="375"/>
      <point x="275" y="392"/>
      <point x="363" y="392" type="curve" smooth="yes"/>
      <point x="397" y="392"/>
      <point x="427" y="389"/>
      <point x="452" y="384" type="curve"/>
      <point x="452" y="234" type="line"/>
      <point x="449" y="180"/>
      <point x="421" y="156"/>
    </contour>
  </outline>
</glyph>
<glyph name="e" format="1">
  <advance width="656"/>
  <unicode hex="0065"/>
  <outline>
    <contour>
      <point x="340" y="674" type="move" name="top"/>
    </contour>
    <contour>
      <point x="498" y="54" type="move" name="ogonek"/>
    </contour>
    <contour>
      <point x="330" y="-110" type="move" name="bottom"/>
    </contour>
    <contour>
      <point x="345" y="-9" type="curve" smooth="yes"/>
      <point x="434" y="-9"/>
      <point x="526" y="2"/>
      <point x="601" y="22" type="curve"/>
      <point x="596" y="181" type="line"/>
      <point x="547" y="170"/>
      <point x="439" y="161"/>
      <point x="366" y="161" type="curve" smooth="yes"/>
      <point x="266" y="161"/>
      <point x="256" y="173"/>
      <point x="256" y="285" type="curve" smooth="yes"/>
      <point x="256" y="373"/>
      <point x="273" y="396"/>
      <point x="338" y="396" type="curve" smooth="yes"/>
      <point x="401" y="396"/>
      <point x="424" y="374"/>
      <point x="424" y="316" type="curve"/>
      <point x="444" y="322" type="line"/>
      <point x="133" y="322" type="line"/>
      <point x="133" y="219" type="line"/>
      <point x="612" y="219" type="line"/>
      <point x="621" y="250"/>
      <point x="625" y="283"/>
      <point x="625" y="316" type="curve" smooth="yes"/>
      <point x="625" y="469"/>
      <point x="530" y="549"/>
      <point x="350" y="549" type="curve" smooth="yes"/>
      <point x="138" y="549"/>
      <point x="31" y="454"/>
      <point x="31" y="268" type="curve" smooth="yes"/>
      <point x="31" y="81"/>
      <point x="133" y="-9"/>
    </contour>
  </outline>
</glyph>
<glyph name="g" format="1">
  <advance width="736"/>
  <unicode hex="0067"/>
  <outline>
    <contour>
      <point x="378" y="674" type="move" name="top"/>
    </contour>
    <contour>
      <point x="332" y="-220" type="curve" smooth="yes"/>
      <point x="511" y="-220"/>
      <point x="683" y="-148"/>
      <point x="683" y="71" type="curve" smooth="yes"/>
      <point x="683" y="490" type="line"/>
      <point x="496" y="544"/>
      <point x="437" y="550"/>
      <point x="371" y="550" type="curve" smooth="yes"/>
      <point x="166" y="550"/>
      <point x="31" y="454"/>
      <point x="31" y="270" type="curve" smooth="yes"/>
      <point x="31" y="107"/>
      <point x="117" y="26"/>
      <point x="282" y="26" type="curve" smooth="yes"/>
      <point x="364" y="26"/>
      <point x="425" y="52"/>
      <point x="460" y="116" type="curve"/>
      <point x="470" y="116" type="line"/>
      <point x="470" y="46" type="line" smooth="yes"/>
      <point x="470" y="-36"/>
      <point x="376" y="-58"/>
      <point x="278" y="-58" type="curve" smooth="yes"/>
      <point x="202" y="-58"/>
      <point x="122" y="-46"/>
      <point x="82" y="-39" type="curve"/>
      <point x="69" y="-199" type="line"/>
      <point x="124" y="-211"/>
      <point x="238" y="-220"/>
    </contour>
    <contour>
      <point x="351" y="191" type="curve" smooth="yes"/>
      <point x="276" y="191"/>
      <point x="261" y="210"/>
      <point x="261" y="285" type="curve" smooth="yes"/>
      <point x="261" y="378"/>
      <point x="276" y="392"/>
      <point x="364" y="392" type="curve" smooth="yes"/>
      <point x="398" y="392"/>
      <point x="428" y="389"/>
      <point x="453" y="384" type="curve"/>
      <point x="453" y="278" type="line" smooth="yes"/>
      <point x="453" y="218"/>
      <point x="426" y="191"/>
    </contour>
  </outline>
</glyph>
<glyph name="t" format="1">
  <advance width="510"/>
  <unicode hex="0074"/>
  <outline>
    <contour>
      <point x="442" y="674" type="move" name="caronalt"/>
    </contour>
    <contour>
      <point x="225" y="-110" type="move" name="bottom"/>
    </contour>
    <contour>
      <point x="327" y="-17" type="curve" smooth="yes"/>
      <point x="381" y="-17"/>
      <point x="442" y="-9"/>
      <point x="473" y="1" type="curve"/>
      <point x="473" y="170" type="line"/>
      <point x="452" y="161"/>
      <point x="431" y="156"/>
      <point x="412" y="156" type="curve" smooth="yes"/>
      <point x="357" y="156"/>
      <point x="340" y="173"/>
      <point x="340" y="230" type="curve" smooth="yes"/>
      <point x="340" y="349" type="line"/>
      <point x="473" y="349" type="line"/>
      <point x="473" y="540" type="line"/>
      <point x="338" y="540" type="line"/>
      <point x="338" y="730" type="line"/>
      <point x="162" y="713" type="line"/>
      <point x="126" y="540" type="line"/>
      <point x="22" y="540" type="line"/>
      <point x="22" y="349" type="line"/>
      <point x="110" y="349" type="line"/>
      <point x="110" y="177" type="line" smooth="yes"/>
      <point x="110" y="50"/>
      <point x="185" y="-17"/>
    </contour>
  </outline>
</glyph>
<glyph name="asciitilde" format="1">
  <advance width="757"/>
  <unicode hex="007E"/>
  <outline>
    <contour>
      <point x="144" y="158" type="line"/>
      <point x="186" y="211"/>
      <point x="226" y="238"/>
      <point x="273" y="238" type="curve" smooth="yes"/>
      <point x="348" y="238"/>
      <point x="410" y="161"/>
      <point x="508" y="161" type="curve" smooth="yes"/>
      <point x="613" y="161"/>
      <point x="681" y="274"/>
      <point x="731" y="346" type="curve"/>
      <point x="613" y="416" type="line"/>
      <point x="571" y="362"/>
      <point x="532" y="336"/>
      <point x="484" y="336" type="curve" smooth="yes"/>
      <point x="409" y="336"/>
      <point x="347" y="412"/>
      <point x="249" y="412" type="curve" smooth="yes"/>
      <point x="176" y="412"/>
      <point x="129" y="380"/>
      <point x="26" y="258" type="curve"/>
    </contour>
  </outline>
</glyph>
<glyph name="copyright" format="1">
  <advance width="812"/>
  <unicode hex="00A9"/>
  <outline>
    <contour>
      <point x="421" y="164" type="curve" smooth="yes"/>
      <point x="453" y="164"/>
      <point x="490" y="168"/>
      <point x="514" y="175" type="curve"/>
      <point x="514" y="278" type="line"/>
      <point x="478" y="271"/>
      <point x="448" y="269"/>
      <point x="434" y="269" type="curve" smooth="yes"/>
      <point x="370" y="269"/>
      <point x="357" y="299"/>
      <point x="357" y="370" type="curve" smooth="yes"/>
      <point x="357" y="440"/>
      <point x="370" y="469"/>
      <point x="436" y="469" type="curve" smooth="yes"/>
      <point x="452" y="469"/>
      <point x="478" y="467"/>
      <point x="514" y="460" type="curve"/>
      <point x="514" y="563" type="line"/>
      <point x="490" y="570"/>
      <point x="453" y="574"/>
      <point x="421" y="574" type="curve" smooth="yes"/>
      <point x="293" y="574"/>
      <point x="231" y="505"/>
      <point x="231" y="369" type="curve" smooth="yes"/>
      <point x="231" y="233"/>
      <point x="293" y="164"/>
    </contour>
    <contour>
      <point x="406" y="-10" type="curve" smooth="yes"/>
      <point x="630" y="-10"/>
      <point x="776" y="144"/>
      <point x="776" y="370" type="curve" smooth="yes"/>
      <point x="776" y="596"/>
      <point x="630" y="750"/>
      <point x="406" y="750" type="curve" smooth="yes"/>
      <point x="182" y="750"/>
      <point x="36" y="596"/>
      <point x="36" y="370" type="curve" smooth="yes"/>
      <point x="36" y="144"/>
      <point x="182" y="-10"/>
    </contour>
    <contour>
      <point x="406" y="88" type="curve" smooth="yes"/>
      <point x="238" y="88"/>
      <point x="141" y="200"/>
      <point x="141" y="370" type="curve" smooth="yes"/>
      <point x="141" y="540"/>
      <point x="238" y="652"/>
      <point x="406" y="652" type="curve" smooth="yes"/>
      <point x="573" y="652"/>
      <point x="670" y="540"/>
      <point x="670" y="370" type="curve" smooth="yes"/>
      <point x="670" y="200"/>
      <point x="573" y="88"/>
    </contour>
  </outline>
</glyph>
<glyph name="logicalnot" format="1">
  <advance width="939"/>
  <unicode hex="00AC"/>
  <outline>
    <contour>
      <point x="42" y="266" type="line"/>
      <point x="652" y="266" type="line"/>
      <point x="652" y="87" type="line"/>
      <point x="876" y="87" type="line"/>
      <point x="876" y="449" type="line"/>
      <point x="42" y="449" type="line"/>
    </contour>
  </outline>
</glyph>
<glyph name="registered" format="1">
  <advance width="694"/>
  <unicode hex="00AE"/>
  <outline>
    <contour>
      <point x="239" y="303" type="line"/>
      <point x="319" y="303" type="line"/>
      <point x="319" y="402" type="line"/>
      <point x="350" y="402" type="line"/>
      <point x="395" y="303" type="line"/>
      <point x="476" y="303" type="line"/>
      <point x="416" y="423" type="line"/>
      <point x="416" y="425" type="line"/>
      <point x="452" y="437"/>
      <point x="470" y="469"/>
      <point x="470" y="513" type="curve" smooth="yes"/>
      <point x="470" y="579"/>
      <point x="427" y="613"/>
      <point x="338" y="613" type="curve" smooth="yes"/>
      <point x="306" y="613"/>
      <point x="273" y="611"/>
      <point x="239" y="608" type="curve"/>
    </contour>
    <contour>
      <point x="338" y="462" type="curve" smooth="yes"/>
      <point x="319" y="462" type="line"/>
      <point x="319" y="556" type="line"/>
      <point x="346" y="556" type="line" smooth="yes"/>
      <point x="379" y="556"/>
      <point x="388" y="538"/>
      <point x="388" y="511" type="curve" smooth="yes"/>
      <point x="388" y="476"/>
      <point x="379" y="462"/>
    </contour>
    <contour>
      <point x="347" y="144" type="curve" smooth="yes"/>
      <point x="532" y="144"/>
      <point x="653" y="267"/>
      <point x="653" y="448" type="curve" smooth="yes"/>
      <point x="653" y="629"/>
      <point x="532" y="752"/>
      <point x="347" y="752" type="curve" smooth="yes"/>
      <point x="162" y="752"/>
      <point x="41" y="629"/>
      <point x="41" y="448" type="curve" smooth="yes"/>
      <point x="41" y="267"/>
      <point x="162" y="144"/>
    </contour>
    <contour>
      <point x="347" y="222" type="curve" smooth="yes"/>
      <point x="207" y="222"/>
      <point x="125" y="311"/>
      <point x="125" y="448" type="curve" smooth="yes"/>
      <point x="125" y="585"/>
      <point x="207" y="674"/>
      <point x="347" y="674" type="curve" smooth="yes"/>
      <point x="486" y="674"/>
      <point x="569" y="585"/>
      <point x="569" y="448" type="curve" smooth="yes"/>
      <point x="569" y="311"/>
      <point x="486" y="222"/>
    </contour>
  </outline>
</glyph>
<glyph name="mu" format="1">
  <advance width="783"/>
  <unicode hex="00B5"/>
  <outline>
    <contour>
      <point x="244" y="-10" type="curve" smooth="yes"/>
      <point x="355" y="-10"/>
      <point x="397" y="10"/>
      <point x="497" y="63" type="curve"/>
      <point x="501" y="63" type="line"/>
      <point x="512" y="0" type="line"/>
      <point x="705" y="0" type="line"/>
      <point x="705" y="540" type="line"/>
      <point x="475" y="540" type="line"/>
      <point x="475" y="175" type="line"/>
      <point x="433" y="163"/>
      <point x="382" y="153"/>
      <point x="351" y="153" type="curve" smooth="yes"/>
      <point x="317" y="153"/>
      <point x="303" y="169"/>
      <point x="303" y="209" type="curve" smooth="yes"/>
      <point x="303" y="540" type="line"/>
      <point x="73" y="540" type="line"/>
      <point x="73" y="144" type="line" smooth="yes"/>
      <point x="73" y="49"/>
      <point x="133" y="-10"/>
    </contour>
    <contour>
      <point x="73" y="-220" type="line"/>
      <point x="303" y="-220" type="line"/>
      <point x="303" y="329" type="line"/>
      <point x="73" y="329" type="line"/>
    </contour>
  </outline>
</glyph>
<glyph name="Oslash" format="1">
  <advance width="868"/>
  <unicode hex="00D8"/>
  <outline>
    <contour>
      <point x="434" y="885" type="move" name="topUC"/>
    </contour>
    <contour>
      <point x="434" y="-10" type="curve"/>
      <point x="693" y="-10"/>
      <point x="835" y="124"/>
      <point x="835" y="369" type="curve" smooth="yes"/>
      <point x="835" y="615"/>
      <point x="693" y="750"/>
      <point x="434" y="750" type="curve" smooth="yes"/>
      <point x="173" y="750"/>
      <point x="33" y="617"/>
      <point x="33" y="369" type="curve" smooth="yes"/>
      <point x="33" y="123"/>
      <point x="174" y="-10"/>
    </contour>
    <contour>
      <point x="434" y="174" type="curve" smooth="yes"/>
      <point x="307" y="174"/>
      <point x="273" y="207"/>
      <point x="273" y="369" type="curve" smooth="yes"/>
      <point x="273" y="529"/>
      <point x="310" y="566"/>
      <point x="434" y="566" type="curve" smooth="yes"/>
      <point x="557" y="566"/>
      <point x="595" y="526"/>
      <point x="595" y="369" type="curve" smooth="yes"/>
      <point x="595" y="206"/>
      <point x="563" y="174"/>
    </contour>
    <contour>
      <point x="5" y="0" type="line"/>
      <point x="166" y="0" type="line"/>
      <point x="863" y="740" type="line"/>
      <point x="702" y="740" type="line"/>
    </contour>
  </outline>
</glyph>
<glyph name="Thorn" format="1">
  <advance width="778"/>
  <unicode hex="00DE"/>
  <outline>
    <contour>
      <point x="340" y="109" type="curve" smooth="yes"/>
      <point x="633" y="109"/>
      <point x="759" y="187"/>
      <point x="759" y="368" type="curve" smooth="yes"/>
      <point x="759" y="549"/>
      <point x="633" y="627"/>
      <point x="340" y="627" type="curve" smooth="yes"/>
      <point x="255" y="627"/>
      <point x="164" y="622"/>
      <point x="65" y="612" type="curve"/>
      <point x="65" y="124" type="line"/>
      <point x="164" y="114"/>
      <point x="255" y="109"/>
    </contour>
    <contour>
      <point x="354" y="301" type="curve" smooth="yes"/>
      <point x="300" y="301" type="line"/>
      <point x="300" y="435" type="line"/>
      <point x="354" y="435" type="line" smooth="yes"/>
      <point x="503" y="435"/>
      <point x="523" y="435"/>
      <point x="523" y="368" type="curve" smooth="yes"/>
      <point x="523" y="301"/>
      <point x="503" y="301"/>
    </contour>
    <contour>
      <point x="65" y="0" type="line"/>
      <point x="300" y="0" type="line"/>
      <point x="300" y="740" type="line"/>
      <point x="65" y="740" type="line"/>
    </contour>
  </outline>
</glyph>
<glyph name="Hbar" format="1">
  <advance width="914"/>
  <unicode hex="0126"/>
  <outline>
    <contour>
      <point x="8" y="534" type="line"/>
      <point x="907" y="534" type="line"/>
      <point x="907" y="637" type="line"/>
      <point x="8" y="637" type="line"/>
    </contour>
    <component base="H" xOffset="7"/>
  </outline>
</glyph>
<glyph name="hbar" format="1">
  <advance width="740"/>
  <unicode hex="0127"/>
  <outline>
    <contour>
      <point x="-29" y="612" type="line"/>
      <point x="445" y="612" type="line"/>
      <point x="445" y="735" type="line"/>
      <point x="-29" y="735" type="line"/>
    </contour>
    <component base="h" xOffset="1"/>
  </outline>
</glyph>
<glyph name="jcircumflex" format="1">
  <advance width="338"/>
  <unicode hex="0135"/>
  <outline>
    <contour>
      <point x="-51" y="597" type="line"/>
      <point x="164" y="678" type="line"/>
      <point x="378" y="597" type="line"/>
      <point x="378" y="745" type="line"/>
      <point x="160" y="827" type="line"/>
      <point x="-51" y="745" type="line"/>
    </contour>
    <component base="dotlessj"/>
  </outline>
</glyph>
<glyph name="tcaron" format="1">
  <advance width="511"/>
  <unicode hex="0165"/>
  <outline>
    <contour>
      <point x="327" y="-17" type="curve" smooth="yes"/>
      <point x="381" y="-17"/>
      <point x="442" y="-9"/>
      <point x="473" y="1" type="curve"/>
      <point x="473" y="170" type="line"/>
      <point x="452" y="161"/>
      <point x="431" y="156"/>
      <point x="412" y="156" type="curve" smooth="yes"/>
      <point x="357" y="156"/>
      <point x="340" y="173"/>
      <point x="340" y="230" type="curve" smooth="yes"/>
      <point x="340" y="349" type="line"/>
      <point x="473" y="349" type="line"/>
      <point x="473" y="540" type="line"/>
      <point x="338" y="540" type="line"/>
      <point x="338" y="730" type="line"/>
      <point x="162" y="713" type="line"/>
      <point x="126" y="540" type="line"/>
      <point x="22" y="540" type="line"/>
      <point x="22" y="349" type="line"/>
      <point x="110" y="349" type="line"/>
      <point x="110" y="177" type="line" smooth="yes"/>
      <point x="110" y="50"/>
      <point x="185" y="-17"/>
    </contour>
    <component base="caron.alt" xOffset="342"/>
  </outline>
</glyph>
<glyph name="tbar" format="1">
  <advance width="512"/>
  <unicode hex="0167"/>
  <outline>
    <contour>
      <point x="25" y="191" type="line"/>
      <point x="437" y="191" type="line"/>
      <point x="437" y="317" type="line"/>
      <point x="25" y="317" type="line"/>
    </contour>
    <component base="t" xOffset="1"/>
  </outline>
</glyph>
<glyph name="florin" format="1">
  <advance width="584"/>
  <unicode hex="0192"/>
  <outline>
    <contour>
      <point x="162" y="-219" type="line"/>
      <point x="392" y="-161" type="line"/>
      <point x="392" y="349" type="line"/>
      <point x="548" y="349" type="line"/>
      <point x="548" y="540" type="line"/>
      <point x="392" y="540" type="line"/>
      <point x="392" y="566" type="line" smooth="yes"/>
      <point x="392" y="627"/>
      <point x="444" y="654"/>
      <point x="563" y="654" type="curve"/>
      <point x="553" y="816" type="line"/>
      <point x="273" y="816"/>
      <point x="163" y="747"/>
      <point x="163" y="563" type="curve" smooth="yes"/>
      <point x="163" y="540" type="line"/>
      <point x="31" y="540" type="line"/>
      <point x="31" y="349" type="line"/>
      <point x="162" y="349" type="line"/>
    </contour>
  </outline>
</glyph>
<glyph name="schwa" format="1">
  <advance width="649"/>
  <unicode hex="0259"/>
  <outline>
    <contour>
      <point x="308" y="549" type="curve" smooth="yes"/>
      <point x="218" y="549"/>
      <point x="127" y="537"/>
      <point x="56" y="518" type="curve"/>
      <point x="61" y="359" type="line"/>
      <point x="150" y="374"/>
      <point x="221" y="374"/>
      <point x="287" y="374" type="curve" smooth="yes"/>
      <point x="398" y="374"/>
      <point x="399" y="372"/>
      <point x="399" y="270" type="curve" smooth="yes"/>
      <point x="399" y="177"/>
      <point x="394" y="154"/>
      <point x="317" y="154" type="curve" smooth="yes"/>
      <point x="246" y="154"/>
      <point x="233" y="166"/>
      <point x="233" y="219" type="curve"/>
      <point x="213" y="213" type="line"/>
      <point x="516" y="213" type="line"/>
      <point x="516" y="339" type="line"/>
      <point x="41" y="339" type="line"/>
      <point x="36" y="308"/>
      <point x="34" y="293"/>
      <point x="34" y="259" type="curve" smooth="yes"/>
      <point x="34" y="70"/>
      <point x="101" y="-9"/>
      <point x="303" y="-9" type="curve" smooth="yes"/>
      <point x="512" y="-9"/>
      <point x="619" y="86"/>
      <point x="619" y="272" type="curve" smooth="yes"/>
      <point x="619" y="456"/>
      <point x="515" y="549"/>
    </contour>
  </outline>
</glyph>
<glyph name="apostrophe" format="1">
  <advance width="262"/>
  <unicode hex="02BC"/>
  <outline>
    <contour>
      <point x="140" y="674" type="move" name="_apostrophe"/>
    </contour>
    <contour>
      <point x="51" y="808" type="line"/>
      <point x="51" y="580" type="line"/>
      <point x="176" y="580" type="line"/>
      <point x="229" y="804" type="line"/>
      <point x="229" y="808" type="line"/>
    </contour>
  </outline>
</glyph>
<glyph name="ring" format="1">
  <advance width="365"/>
  <unicode hex="02DA"/>
  <outline>
    <contour>
      <point x="180" y="674" type="move" name="_top"/>
    </contour>
    <contour>
      <point x="181" y="580" type="curve" smooth="yes"/>
      <point x="266" y="580"/>
      <point x="329" y="627"/>
      <point x="329" y="698" type="curve" smooth="yes"/>
      <point x="329" y="769"/>
      <point x="266" y="818"/>
      <point x="181" y="818" type="curve" smooth="yes"/>
      <point x="97" y="818"/>
      <point x="33" y="769"/>
      <point x="33" y="698" type="curve" smooth="yes"/>
      <point x="33" y="627"/>
      <point x="97" y="580"/>
    </contour>
    <contour>
      <point x="181" y="650" type="curve" smooth="yes"/>
      <point x="133" y="650"/>
      <point x="119" y="665"/>
      <point x="119" y="698" type="curve" smooth="yes"/>
      <point x="119" y="732"/>
      <point x="133" y="747"/>
      <point x="181" y="747" type="curve" smooth="yes"/>
      <point x="230" y="747"/>
      <point x="243" y="732"/>
      <point x="243" y="698" type="curve" smooth="yes"/>
      <point x="243" y="665"/>
      <point x="230" y="650"/>
    </contour>
  </outline>
</glyph>
<glyph name="hungarumlaut" format="1">
  <advance width="581"/>
  <unicode hex="02DD"/>
  <outline>
    <contour>
      <point x="244" y="674" type="move" name="_top"/>
    </contour>
    <contour>
      <point x="190" y="607" type="line"/>
      <point x="323" y="808" type="line"/>
      <point x="92" y="808" type="line"/>
      <point x="31" y="617" type="line"/>
    </contour>
    <contour>
      <point x="443" y="607" type="line"/>
      <point x="575" y="808" type="line"/>
      <point x="344" y="808" type="line"/>
      <point x="283" y="617" type="line"/>
    </contour>
  </outline>
</glyph>
<glyph name="uni030F" format="1">
  <advance width="590"/>
  <unicode hex="030F"/>
  <outline>
    <contour>
      <point x="337" y="674" type="move" name="_top"/>
    </contour>
    <contour>
      <point x="297" y="617" type="line"/>
      <point x="236" y="808" type="line"/>
      <point x="5" y="808" type="line"/>
      <point x="138" y="607" type="line"/>
    </contour>
    <contour>
      <point x="550" y="617" type="line"/>
      <point x="488" y="808" type="line"/>
      <point x="257" y="808" type="line"/>
      <point x="390" y="607" type="line"/>
    </contour>
  </outline>
</glyph>
<glyph name="uni03A9" format="1">
  <advance width="840"/>
  <unicode hex="03A9"/>
  <outline>
    <contour>
      <point x="36" y="0" type="line"/>
      <point x="379" y="0" type="line"/>
      <point x="379" y="132" type="line"/>
      <point x="347" y="161"/>
      <point x="267" y="274"/>
      <point x="267" y="408" type="curve" smooth="yes"/>
      <point x="267" y="508"/>
      <point x="322" y="566"/>
      <point x="420" y="566" type="curve" smooth="yes"/>
      <point x="521" y="566"/>
      <point x="579" y="508"/>
      <point x="579" y="408" type="curve" smooth="yes"/>
      <point x="579" y="274"/>
      <point x="544" y="198"/>
      <point x="461" y="132" type="curve"/>
      <point x="461" y="0" type="line"/>
      <point x="804" y="0" type="line"/>
      <point x="804" y="162" type="line"/>
      <point x="615" y="147" type="line"/>
      <point x="722" y="206"/>
      <point x="793" y="317"/>
      <point x="793" y="438" type="curve" smooth="yes"/>
      <point x="793" y="626"/>
      <point x="645" y="750"/>
      <point x="420" y="750" type="curve" smooth="yes"/>
      <point x="195" y="750"/>
      <point x="47" y="626"/>
      <point x="47" y="438" type="curve" smooth="yes"/>
      <point x="47" y="318"/>
      <point x="117" y="207"/>
      <point x="223" y="147" type="curve"/>
      <point x="36" y="162" type="line"/>
    </contour>
  </outline>
</glyph>
<glyph name="emdash" format="1">
  <advance width="917"/>
  <unicode hex="2014"/>
  <outline>
    <contour>
      <point x="52" y="198" type="line"/>
      <point x="865" y="198" type="line"/>
      <point x="865" y="362" type="line"/>
      <point x="52" y="362" type="line"/>
    </contour>
  </outline>
</glyph>
<glyph name="quoteleft" format="1">
  <advance width="291"/>
  <unicode hex="2018"/>
  <outline>
    <contour>
      <point x="39" y="480" type="curve"/>
      <point x="243" y="480" type="line"/>
      <point x="225" y="520"/>
      <point x="221" y="552"/>
      <point x="221" y="599" type="curve" smooth="yes"/>
      <point x="221" y="678"/>
      <point x="237" y="762"/>
      <point x="264" y="808" type="curve"/>
      <point x="133" y="808" type="line"/>
      <point x="67" y="719"/>
      <point x="34" y="611"/>
      <point x="34" y="531" type="curve" smooth="yes"/>
      <point x="34" y="513"/>
      <point x="38" y="493"/>
    </contour>
  </outline>
</glyph>
<glyph name="perthousand" format="1">
  <advance width="1755"/>
  <unicode hex="2030"/>
  <outline>
    <contour>
      <point x="275" y="278" type="curve" smooth="yes"/>
      <point x="431" y="278"/>
      <point x="522" y="355"/>
      <point x="522" y="514" type="curve" smooth="yes"/>
      <point x="522" y="673"/>
      <point x="431" y="751"/>
      <point x="275" y="751" type="curve" smooth="yes"/>
      <point x="120" y="751"/>
      <point x="28" y="673"/>
      <point x="28" y="514" type="curve" smooth="yes"/>
      <point x="28" y="355"/>
      <point x="120" y="278"/>
    </contour>
    <contour>
      <point x="275" y="413" type="curve" smooth="yes"/>
      <point x="213" y="413"/>
      <point x="189" y="431"/>
      <point x="189" y="514" type="curve" smooth="yes"/>
      <point x="189" y="597"/>
      <point x="213" y="616"/>
      <point x="275" y="616" type="curve" smooth="yes"/>
      <point x="335" y="616"/>
      <point x="361" y="597"/>
      <point x="361" y="514" type="curve" smooth="yes"/>
      <point x="361" y="431"/>
      <point x="335" y="413"/>
    </contour>
    <contour>
      <point x="972" y="-10" type="curve" smooth="yes"/>
      <point x="1128" y="-10"/>
      <point x="1219" y="67"/>
      <point x="1219" y="226" type="curve" smooth="yes"/>
      <point x="1219" y="385"/>
      <point x="1128" y="463"/>
      <point x="972" y="463" type="curve" smooth="yes"/>
      <point x="817" y="463"/>
      <point x="725" y="385"/>
      <point x="725" y="226" type="curve" smooth="yes"/>
      <point x="725" y="67"/>
      <point x="817" y="-10"/>
    </contour>
    <contour>
      <point x="972" y="125" type="curve" smooth="yes"/>
      <point x="910" y="125"/>
      <point x="886" y="143"/>
      <point x="886" y="226" type="curve" smooth="yes"/>
      <point x="886" y="309"/>
      <point x="910" y="328"/>
      <point x="972" y="328" type="curve" smooth="yes"/>
      <point x="1032" y="328"/>
      <point x="1058" y="309"/>
      <point x="1058" y="226" type="curve" smooth="yes"/>
      <point x="1058" y="143"/>
      <point x="1032" y="125"/>
    </contour>
    <contour>
      <point x="1480" y="-10" type="curve" smooth="yes"/>
      <point x="1641" y="-10"/>
      <point x="1727" y="72"/>
      <point x="1727" y="226" type="curve" smooth="yes"/>
      <point x="1727" y="380"/>
      <point x="1641" y="463"/>
      <point x="1480" y="463" type="curve" smooth="yes"/>
      <point x="1320" y="463"/>
      <point x="1233" y="380"/>
      <point x="1233" y="226" type="curve" smooth="yes"/>
      <point x="1233" y="72"/>
      <point x="1319" y="-10"/>
    </contour>
    <contour>
      <point x="1480" y="125" type="curve" smooth="yes"/>
      <point x="1414" y="125"/>
      <point x="1394" y="148"/>
      <point x="1394" y="226" type="curve" smooth="yes"/>
      <point x="1394" y="304"/>
      <point x="1414" y="328"/>
      <point x="1480" y="328" type="curve" smooth="yes"/>
      <point x="1545" y="328"/>
      <point x="1566" y="303"/>
      <point x="1566" y="226" type="curve" smooth="yes"/>
      <point x="1566" y="149"/>
      <point x="1545" y="125"/>
    </contour>
    <contour>
      <point x="337" y="0" type="line"/>
      <point x="534" y="0" type="line"/>
      <point x="907" y="740" type="line"/>
      <point x="710" y="740" type="line"/>
    </contour>
  </outline>
</glyph>
<glyph name="guilsinglleft" format="1">
  <advance width="491"/>
  <unicode hex="2039"/>
  <outline>
    <contour>
      <point x="233" y="30" type="line"/>
      <point x="463" y="30" type="line"/>
      <point x="255" y="268" type="line"/>
      <point x="255" y="272" type="line"/>
      <point x="463" y="510" type="line"/>
      <point x="233" y="510" type="line"/>
      <point x="25" y="272" type="line"/>
      <point x="25" y="268" type="line"/>
    </contour>
  </outline>
</glyph>
<glyph name="foursuperior" format="1">
  <advance width="598"/>
  <unicode hex="2074"/>
  <outline>
    <contour>
      <point x="295" y="300" type="line"/>
      <point x="485" y="300" type="line"/>
      <point x="485" y="385" type="line"/>
      <point x="582" y="385" type="line"/>
      <point x="582" y="530" type="line"/>
      <point x="485" y="530" type="line"/>
      <point x="485" y="645" type="line"/>
      <point x="350" y="645" type="line"/>
      <point x="305" y="530" type="line"/>
      <point x="206" y="530" type="line"/>
      <point x="420" y="803" type="line"/>
      <point x="402" y="840" type="line"/>
      <point x="235" y="852" type="line"/>
      <point x="217" y="846" type="line"/>
      <point x="8" y="506" type="line"/>
      <point x="27" y="385" type="line"/>
      <point x="295" y="385" type="line"/>
    </contour>
  </outline>
</glyph>
<glyph name="sevensuperior" format="1">
  <advance width="481"/>
  <unicode hex="2077"/>
  <outline>
    <contour>
      <point x="216" y="281" type="line"/>
      <point x="94" y="296" type="line"/>
      <point x="78" y="334" type="line"/>
      <point x="312" y="758" type="line"/>
      <point x="325" y="693" type="line"/>
      <point x="17" y="693" type="line"/>
      <point x="17" y="816" type="line"/>
      <point x="41" y="840" type="line"/>
      <point x="454" y="840" type="line"/>
      <point x="476" y="761" type="line"/>
      <point x="476" y="737" type="line"/>
      <point x="259" y="299" type="line"/>
    </contour>
  </outline>
</glyph>
<glyph name="eightsuperior" format="1">
  <advance width="610"/>
  <unicode hex="2078"/>
  <outline>
    <contour>
      <point x="311" y="294" type="curve" smooth="yes"/>
      <point x="498" y="294"/>
      <point x="582" y="348"/>
      <point x="582" y="467" type="curve" smooth="yes"/>
      <point x="582" y="522"/>
      <point x="560" y="564"/>
      <point x="517" y="593" type="curve"/>
      <point x="553" y="617"/>
      <point x="567" y="646"/>
      <point x="567" y="693" type="curve" smooth="yes"/>
      <point x="567" y="792"/>
      <point x="470" y="853"/>
      <point x="311" y="853" type="curve" smooth="yes"/>
      <point x="141" y="853"/>
      <point x="40" y="793"/>
      <point x="40" y="693" type="curve" smooth="yes"/>
      <point x="40" y="644"/>
      <point x="62" y="602"/>
      <point x="102" y="576" type="curve"/>
      <point x="51" y="547"/>
      <point x="27" y="506"/>
      <point x="27" y="450" type="curve" smooth="yes"/>
      <point x="27" y="345"/>
      <point x="120" y="294"/>
    </contour>
    <contour>
      <point x="311" y="423" type="curve" smooth="yes"/>
      <point x="257" y="423"/>
      <point x="222" y="443"/>
      <point x="222" y="474" type="curve" smooth="yes"/>
      <point x="222" y="489"/>
      <point x="234" y="509"/>
      <point x="256" y="529" type="curve"/>
      <point x="270" y="526" type="line" smooth="yes"/>
      <point x="355" y="507"/>
      <point x="387" y="492"/>
      <point x="387" y="472" type="curve" smooth="yes"/>
      <point x="387" y="437"/>
      <point x="366" y="423"/>
    </contour>
    <contour>
      <point x="342" y="631" type="curve"/>
      <point x="323" y="634" type="line" smooth="yes"/>
      <point x="262" y="644"/>
      <point x="235" y="660"/>
      <point x="235" y="688" type="curve" smooth="yes"/>
      <point x="235" y="710"/>
      <point x="264" y="724"/>
      <point x="311" y="724" type="curve" smooth="yes"/>
      <point x="348" y="724"/>
      <point x="372" y="708"/>
      <point x="372" y="684" type="curve" smooth="yes"/>
      <point x="372" y="667"/>
      <point x="358" y="642"/>
    </contour>
  </outline>
</glyph>
<glyph name="twoinferior" format="1">
  <advance width="562"/>
  <unicode hex="2082"/>
  <outline>
    <contour>
      <point x="26" y="-100" type="line"/>
      <point x="526" y="-100" type="line"/>
      <point x="526" y="54" type="line"/>
      <point x="284" y="54" type="line"/>
      <point x="284" y="57" type="line" smooth="yes"/>
      <point x="284" y="63"/>
      <point x="299" y="70"/>
      <point x="350" y="89" type="curve"/>
      <point x="465" y="128"/>
      <point x="526" y="192"/>
      <point x="526" y="276" type="curve" smooth="yes"/>
      <point x="526" y="397"/>
      <point x="444" y="453"/>
      <point x="269" y="453" type="curve" smooth="yes"/>
      <point x="209" y="453"/>
      <point x="143" y="447"/>
      <point x="43" y="431" type="curve"/>
      <point x="58" y="276" type="line"/>
      <point x="140" y="288"/>
      <point x="191" y="293"/>
      <point x="233" y="293" type="curve" smooth="yes"/>
      <point x="301" y="293"/>
      <point x="336" y="282"/>
      <point x="336" y="260" type="curve" smooth="yes"/>
      <point x="336" y="244"/>
      <point x="325" y="238"/>
      <point x="231" y="207" type="curve" smooth="yes"/>
      <point x="90" y="160"/>
      <point x="26" y="90"/>
      <point x="26" y="-15" type="curve" smooth="yes"/>
    </contour>
  </outline>
</glyph>
<glyph name="eightinferior" format="1">
  <advance width="610"/>
  <unicode hex="2088"/>
  <outline>
    <contour>
      <point x="311" y="-106" type="curve" smooth="yes"/>
      <point x="498" y="-106"/>
      <point x="582" y="-52"/>
      <point x="582" y="67" type="curve" smooth="yes"/>
      <point x="582" y="122"/>
      <point x="560" y="164"/>
      <point x="517" y="193" type="curve"/>
      <point x="553" y="217"/>
      <point x="567" y="246"/>
      <point x="567" y="293" type="curve" smooth="yes"/>
      <point x="567" y="392"/>
      <point x="470" y="453"/>
      <point x="311" y="453" type="curve" smooth="yes"/>
      <point x="141" y="453"/>
      <point x="40" y="393"/>
      <point x="40" y="293" type="curve" smooth="yes"/>
      <point x="40" y="244"/>
      <point x="62" y="202"/>
      <point x="102" y="176" type="curve"/>
      <point x="51" y="147"/>
      <point x="27" y="106"/>
      <point x="27" y="50" type="curve" smooth="yes"/>
      <point x="27" y="-55"/>
      <point x="120" y="-106"/>
    </contour>
    <contour>
      <point x="311" y="23" type="curve" smooth="yes"/>
      <point x="257" y="23"/>
      <point x="222" y="43"/>
      <point x="222" y="74" type="curve" smooth="yes"/>
      <point x="222" y="89"/>
      <point x="234" y="109"/>
      <point x="256" y="129" type="curve"/>
      <point x="270" y="126" type="line" smooth="yes"/>
      <point x="355" y="107"/>
      <point x="387" y="92"/>
      <point x="387" y="72" type="curve" smooth="yes"/>
      <point x="387" y="37"/>
      <point x="366" y="23"/>
    </contour>
    <contour>
      <point x="342" y="231" type="curve"/>
      <point x="323" y="234" type="line" smooth="yes"/>
      <point x="262" y="244"/>
      <point x="235" y="260"/>
      <point x="235" y="288" type="curve" smooth="yes"/>
      <point x="235" y="310"/>
      <point x="264" y="324"/>
      <point x="311" y="324" type="curve" smooth="yes"/>
      <point x="348" y="324"/>
      <point x="372" y="308"/>
      <point x="372" y="284" type="curve" smooth="yes"/>
      <point x="372" y="267"/>
      <point x="358" y="242"/>
    </contour>
  </outline>
</glyph>
<glyph name="lira" format="1">
  <advance width="792"/>
  <unicode hex="20A4"/>
  <outline>
    <contour>
      <point x="45" y="0" type="line"/>
      <point x="739" y="0" type="line"/>
      <point x="739" y="196" type="line"/>
      <point x="444" y="196" type="line"/>
      <point x="444" y="503" type="line" smooth="yes"/>
      <point x="444" y="543"/>
      <point x="481" y="559"/>
      <point x="583" y="559" type="curve" smooth="yes"/>
      <point x="631" y="559"/>
      <point x="684" y="554"/>
      <point x="748" y="543" type="curve"/>
      <point x="753" y="725" type="line"/>
      <point x="680" y="744"/>
      <point x="630" y="750"/>
      <point x="557" y="750" type="curve" smooth="yes"/>
      <point x="327" y="750"/>
      <point x="209" y="667"/>
      <point x="209" y="503" type="curve" smooth="yes"/>
      <point x="209" y="198" type="line"/>
      <point x="45" y="198" type="line"/>
    </contour>
    <contour>
      <point x="45" y="242" type="line"/>
      <point x="620" y="242" type="line"/>
      <point x="640" y="352" type="line"/>
      <point x="45" y="352" type="line"/>
    </contour>
    <contour>
      <point x="45" y="386" type="line"/>
      <point x="645" y="386" type="line"/>
      <point x="665" y="496" type="line"/>
      <point x="45" y="496" type="line"/>
    </contour>
  </outline>
</glyph>
<glyph name="Euro" format="1">
  <advance width="780"/>
  <unicode hex="20AC"/>
  <outline>
    <contour>
      <point x="542" y="-10" type="curve" smooth="yes"/>
      <point x="620" y="-10"/>
      <point x="700" y="-2"/>
      <point x="742" y="11" type="curve"/>
      <point x="742" y="201" type="line"/>
      <point x="686" y="187"/>
      <point x="637" y="184"/>
      <point x="579" y="184" type="curve" smooth="yes"/>
      <point x="360" y="184"/>
      <point x="338" y="209"/>
      <point x="338" y="369" type="curve" smooth="yes"/>
      <point x="338" y="530"/>
      <point x="360" y="555"/>
      <point x="576" y="555" type="curve" smooth="yes"/>
      <point x="611" y="555"/>
      <point x="670" y="548"/>
      <point x="687" y="543" type="curve"/>
      <point x="742" y="728" type="line"/>
      <point x="701" y="734"/>
      <point x="626" y="750"/>
      <point x="524" y="750" type="curve" smooth="yes"/>
      <point x="227" y="750"/>
      <point x="102" y="617"/>
      <point x="102" y="368" type="curve" smooth="yes"/>
      <point x="102" y="121"/>
      <point x="225" y="-10"/>
    </contour>
    <contour>
      <point x="32" y="223" type="line"/>
      <point x="620" y="223" type="line"/>
      <point x="640" y="347" type="line"/>
      <point x="32" y="347" type="line"/>
    </contour>
    <contour>
      <point x="32" y="392" type="line"/>
      <point x="652" y="392" type="line"/>
      <point x="672" y="516" type="line"/>
      <point x="32" y="516" type="line"/>
    </contour>
  </outline>
</glyph>
<glyph name="uni20BA" format="1">
  <advance width="820"/>
  <unicode hex="20BA"/>
  <outline>
    <contour>
      <point x="39" y="416" type="line"/>
      <point x="657" y="516" type="line"/>
      <point x="657" y="639" type="line"/>
      <point x="39" y="539" type="line"/>
    </contour>
    <contour>
      <point x="39" y="247" type="line"/>
      <point x="657" y="347" type="line"/>
      <point x="657" y="470" type="line"/>
      <point x="39" y="370" type="line"/>
    </contour>
    <contour>
      <point x="201" y="0" type="line"/>
      <point x="507" y="0" type="line" smooth="yes"/>
      <point x="813" y="0"/>
      <point x="793" y="196"/>
      <point x="793" y="270" type="curve"/>
      <point x="557" y="270" type="line"/>
      <point x="557" y="178"/>
      <point x="549" y="196"/>
      <point x="507" y="196" type="curve" smooth="yes"/>
      <point x="436" y="196" type="line"/>
      <point x="436" y="740" type="line"/>
      <point x="201" y="740" type="line"/>
    </contour>
  </outline>
</glyph>
<glyph name="uni2113" format="1">
  <advance width="455"/>
  <unicode hex="2113"/>
  <outline>
    <contour>
      <point x="229" y="3" type="curve" smooth="yes"/>
      <point x="286" y="3"/>
      <point x="330" y="31"/>
      <point x="363" y="109" type="curve"/>
      <point x="328" y="121" type="line"/>
      <point x="314" y="87"/>
      <point x="291" y="50"/>
      <point x="273" y="50" type="curve" smooth="yes"/>
      <point x="245" y="50"/>
      <point x="235" y="103"/>
      <point x="235" y="175" type="curve" smooth="yes"/>
      <point x="235" y="220"/>
      <point x="238" y="256"/>
      <point x="240" y="292" type="curve"/>
      <point x="349" y="406"/>
      <point x="441" y="542"/>
      <point x="441" y="692" type="curve" smooth="yes"/>
      <point x="441" y="743"/>
      <point x="425" y="789"/>
      <point x="371" y="789" type="curve" smooth="yes"/>
      <point x="240" y="789"/>
      <point x="167" y="577"/>
      <point x="144" y="254" type="curve"/>
      <point x="102" y="216"/>
      <point x="62" y="187"/>
      <point x="28" y="164" type="curve"/>
      <point x="53" y="129" type="line"/>
      <point x="79" y="149"/>
      <point x="112" y="175"/>
      <point x="141" y="199" type="curve"/>
      <point x="140" y="181"/>
      <point x="140" y="158"/>
      <point x="140" y="143" type="curve" smooth="yes"/>
      <point x="140" y="37"/>
      <point x="163" y="3"/>
    </contour>
    <contour>
      <point x="248" y="368" type="curve"/>
      <point x="260" y="534"/>
      <point x="285" y="640"/>
      <point x="335" y="730" type="curve"/>
      <point x="343" y="713"/>
      <point x="346" y="666"/>
      <point x="346" y="632" type="curve" smooth="yes"/>
      <point x="346" y="541"/>
      <point x="307" y="446"/>
    </contour>
  </outline>
</glyph>
<glyph name="arrowup" format="1">
  <advance width="712"/>
  <unicode hex="2191"/>
  <outline>
    <contour>
      <point x="272" y="76" type="line"/>
      <point x="440" y="76" type="line"/>
      <point x="440" y="478" type="line"/>
      <point x="576" y="320" type="line"/>
      <point x="691" y="435" type="line"/>
      <point x="388" y="739" type="line"/>
      <point x="324" y="739" type="line"/>
      <point x="21" y="435" type="line"/>
      <point x="136" y="320" type="line"/>
      <point x="272" y="478" type="line"/>
    </contour>
  </outline>
</glyph>
<glyph name="product" format="1">
  <advance width="839"/>
  <unicode hex="220F"/>
  <outline>
    <contour>
      <point x="83" y="-122" type="line"/>
      <point x="313" y="-122" type="line"/>
      <point x="313" y="568" type="line"/>
      <point x="526" y="568" type="line"/>
      <point x="526" y="-122" type="line"/>
      <point x="756" y="-122" type="line"/>
      <point x="756" y="740" type="line"/>
      <point x="83" y="740" type="line"/>
    </contour>
  </outline>
</glyph>
<glyph name="summation" format="1">
  <advance width="638"/>
  <unicode hex="2211"/>
  <outline>
    <contour>
      <point x="32" y="-101" type="line"/>
      <point x="598" y="-101" type="line"/>
      <point x="598" y="71" type="line"/>
      <point x="305" y="71" type="line"/>
      <point x="481" y="320" type="line"/>
      <point x="306" y="567" type="line"/>
      <point x="598" y="567" type="line"/>
      <point x="598" y="740" type="line"/>
      <point x="32" y="740" type="line"/>
      <point x="32" y="626" type="line"/>
      <point x="264" y="319" type="line"/>
      <point x="32" y="13" type="line"/>
    </contour>
  </outline>
</glyph>
<glyph name="integral" format="1">
  <advance width="401"/>
  <unicode hex="222B"/>
  <outline>
    <contour>
      <point x="126" y="-211" type="curve" smooth="yes"/>
      <point x="249" y="-211"/>
      <point x="317" y="-162"/>
      <point x="317" y="-75" type="curve" smooth="yes"/>
      <point x="317" y="-64" type="line"/>
      <point x="266" y="614" type="line"/>
      <point x="266" y="618" type="line" smooth="yes"/>
      <point x="266" y="640"/>
      <point x="282" y="653"/>
      <point x="312" y="653" type="curve" smooth="yes"/>
      <point x="324" y="653"/>
      <point x="329" y="652"/>
      <point x="368" y="645" type="curve"/>
      <point x="390" y="759" type="line"/>
      <point x="321" y="774"/>
      <point x="275" y="780"/>
      <point x="226" y="780" type="curve" smooth="yes"/>
      <point x="134" y="780"/>
      <point x="85" y="728"/>
      <point x="85" y="632" type="curve" smooth="yes"/>
      <point x="85" y="625"/>
      <point x="85" y="618"/>
      <point x="86" y="610" type="curve" smooth="yes"/>
      <point x="136" y="-37" type="line"/>
      <point x="136" y="-43" type="line" smooth="yes"/>
      <point x="136" y="-71"/>
      <point x="121" y="-84"/>
      <point x="90" y="-84" type="curve" smooth="yes"/>
      <point x="78" y="-84"/>
      <point x="70" y="-83"/>
      <point x="34" y="-76" type="curve"/>
      <point x="12" y="-190" type="line"/>
      <point x="54" y="-204"/>
      <point x="92" y="-211"/>
    </contour>
  </outline>
</glyph>
<glyph name="greaterequal" format="1">
  <advance width="596"/>
  <unicode hex="2265"/>
  <outline>
    <contour>
      <point x="62" y="216" type="line"/>
      <point x="545" y="373" type="line"/>
      <point x="545" y="482" type="line"/>
      <point x="406" y="452" type="line"/>
      <point x="62" y="363" type="line"/>
    </contour>
    <contour>
      <point x="62" y="515" type="line"/>
      <point x="406" y="426" type="line"/>
      <point x="545" y="396" type="line"/>
      <point x="545" y="505" type="line"/>
      <point x="62" y="662" type="line"/>
    </contour>
    <contour>
      <point x="62" y="56" type="line"/>
      <point x="546" y="56" type="line"/>
      <point x="546" y="190" type="line"/>
      <point x="62" y="190" type="line"/>
    </contour>
  </outline>
</glyph>
<glyph name="lozenge" format="1">
  <advance width="700"/>
  <unicode hex="25CA"/>
  <outline>
    <contour>
      <point x="203" y="0" type="line"/>
      <point x="497" y="0" type="line"/>
      <point x="670" y="361" type="line"/>
      <point x="670" y="381" type="line"/>
      <point x="497" y="740" type="line"/>
      <point x="203" y="740" type="line"/>
      <point x="30" y="381" type="line"/>
      <point x="30" y="361" type="line"/>
    </contour>
    <contour>
      <point x="350" y="141" type="line"/>
      <point x="252" y="371" type="line"/>
      <point x="350" y="599" type="line"/>
      <point x="447" y="371" type="line"/>
    </contour>
  </outline>
</glyph>
<glyph name="commaaccent" format="1">
  <advance width="325"/>
  <unicode hex="F6C3"/>
  <outline>
    <contour>
      <point x="187" y="-110" type="move" name="_bottom"/>
    </contour>
    <contour>
      <point x="35" y="-220" type="line"/>
      <point x="206" y="-220" type="line"/>
      <point x="310" y="-70" type="line"/>
      <point x="74" y="-70" type="line"/>
    </contour>
  </outline>
</glyph>
<glyph name="A.sc" format="1">
  <advance width="763"/>
  <note>
    520
  </note>
  <outline>
    <contour>
      <point x="521" y="0" type="move" name="ogonek"/>
    </contour>
    <contour>
      <point x="271" y="760" type="move" name="topUC"/>
    </contour>
    <contour>
      <point x="-4" y="0" type="line"/>
      <point x="213" y="0" type="line"/>
      <point x="250" y="90" type="line"/>
      <point x="512" y="90" type="line"/>
      <point x="550" y="0" type="line"/>
      <point x="767" y="0" type="line"/>
      <point x="767" y="11" type="line"/>
      <point x="545" y="577" type="line"/>
      <point x="218" y="577" type="line"/>
      <point x="-4" y="11" type="line"/>
    </contour>
    <contour>
      <point x="294" y="235" type="line"/>
      <point x="324" y="311" type="line"/>
      <point x="371" y="429" type="line"/>
      <point x="390" y="429" type="line"/>
      <point x="438" y="313" type="line"/>
      <point x="468" y="235" type="line"/>
    </contour>
  </outline>
</glyph>
<glyph name="Adblgrave.sc" format="1">
  <advance width="763"/>
  <outline>
    <contour>
      <point x="-4" y="0" type="line"/>
      <point x="213" y="0" type="line"/>
      <point x="250" y="90" type="line"/>
      <point x="512" y="90" type="line"/>
      <point x="550" y="0" type="line"/>
      <point x="767" y="0" type="line"/>
      <point x="767" y="11" type="line"/>
      <point x="545" y="577" type="line"/>
      <point x="218" y="577" type="line"/>
      <point x="-4" y="11" type="line"/>
    </contour>
    <contour>
      <point x="296" y="245" type="line"/>
      <point x="324" y="311" type="line"/>
      <point x="371" y="429" type="line"/>
      <point x="390" y="429" type="line"/>
      <point x="438" y="313" type="line"/>
      <point x="466" y="245" type="line"/>
    </contour>
    <contour>
      <point x="167" y="633" type="line"/>
      <point x="320" y="640" type="line"/>
      <point x="266" y="804" type="line"/>
      <point x="45" y="804" type="line"/>
    </contour>
    <contour>
      <point x="403" y="633" type="line"/>
      <point x="556" y="640" type="line"/>
      <point x="502" y="804" type="line"/>
      <point x="280" y="804" type="line"/>
    </contour>
  </outline>
</glyph>
<glyph name="Ainvertedbreve.sc" format="1">
  <advance width="763"/>
  <outline>
    <contour>
      <point x="142" y="643" type="curve"/>
      <point x="283" y="643" type="line"/>
      <point x="283" y="684"/>
      <point x="301" y="710"/>
      <point x="381" y="710" type="curve" smooth="yes"/>
      <point x="462" y="710"/>
      <point x="479" y="684"/>
      <point x="479" y="643" type="curve"/>
      <point x="619" y="643" type="line"/>
      <point x="619" y="733"/>
      <point x="568" y="807"/>
      <point x="381" y="807" type="curve" smooth="yes"/>
      <point x="193" y="807"/>
      <point x="142" y="729"/>
    </contour>
    <contour>
      <point x="-4" y="0" type="line"/>
      <point x="213" y="0" type="line"/>
      <point x="250" y="90" type="line"/>
      <point x="512" y="90" type="line"/>
      <point x="550" y="0" type="line"/>
      <point x="767" y="0" type="line"/>
      <point x="767" y="11" type="line"/>
      <point x="545" y="577" type="line"/>
      <point x="218" y="577" type="line"/>
      <point x="-4" y="11" type="line"/>
    </contour>
    <contour>
      <point x="296" y="245" type="line"/>
      <point x="324" y="311" type="line"/>
      <point x="371" y="429" type="line"/>
      <point x="390" y="429" type="line"/>
      <point x="438" y="313" type="line"/>
      <point x="466" y="245" type="line"/>
    </contour>
  </outline>
</glyph>
<glyph name="Ccaron.sc" format="1">
  <advance width="609"/>
  <outline>
    <contour>
      <point x="426" y="-14" type="curve" smooth="yes"/>
      <point x="472" y="-14"/>
      <point x="519" y="-12"/>
      <point x="571" y="-5" type="curve"/>
      <point x="571" y="172" type="line"/>
      <point x="542" y="169"/>
      <point x="465" y="166"/>
      <point x="426" y="166" type="curve" smooth="yes"/>
      <point x="286" y="166"/>
      <point x="262" y="174"/>
      <point x="262" y="288" type="curve" smooth="yes"/>
      <point x="262" y="407"/>
      <point x="284" y="412"/>
      <point x="428" y="412" type="curve" smooth="yes"/>
      <point x="460" y="412"/>
      <point x="474" y="413"/>
      <point x="571" y="407" type="curve"/>
      <point x="571" y="582" type="line"/>
      <point x="487" y="589"/>
      <point x="442" y="590"/>
      <point x="401" y="590" type="curve" smooth="yes"/>
      <point x="151" y="590"/>
      <point x="32" y="494"/>
      <point x="32" y="288" type="curve" smooth="yes"/>
      <point x="32" y="80"/>
      <point x="156" y="-14"/>
    </contour>
    <contour>
      <point x="118" y="684" type="line"/>
      <point x="334" y="618" type="line"/>
      <point x="556" y="684" type="line"/>
      <point x="556" y="822" type="line"/>
      <point x="337" y="755" type="line"/>
      <point x="118" y="822" type="line"/>
    </contour>
  </outline>
</glyph>
<glyph name="Dcroat.sc" format="1">
  <advance width="822"/>
  <outline>
    <contour>
      <point x="15" y="212" type="line"/>
      <point x="94" y="212" type="line"/>
      <point x="94" y="1" type="line"/>
      <point x="141" y="-4"/>
      <point x="237" y="-8"/>
      <point x="322" y="-8" type="curve" smooth="yes"/>
      <point x="659" y="-8"/>
      <point x="790" y="72"/>
      <point x="790" y="287" type="curve" smooth="yes"/>
      <point x="790" y="493"/>
      <point x="663" y="585"/>
      <point x="379" y="585" type="curve" smooth="yes"/>
      <point x="313" y="585"/>
      <point x="227" y="582"/>
      <point x="94" y="575" type="curve"/>
      <point x="94" y="376" type="line"/>
      <point x="15" y="376" type="line"/>
    </contour>
    <contour>
      <point x="416" y="164" type="curve" smooth="yes"/>
      <point x="382" y="164"/>
      <point x="341" y="167"/>
      <point x="317" y="170" type="curve"/>
      <point x="317" y="212" type="line"/>
      <point x="401" y="212" type="line"/>
      <point x="401" y="376" type="line"/>
      <point x="317" y="376" type="line"/>
      <point x="317" y="409" type="line"/>
      <point x="367" y="412"/>
      <point x="391" y="412"/>
      <point x="412" y="412" type="curve" smooth="yes"/>
      <point x="526" y="412"/>
      <point x="563" y="384"/>
      <point x="563" y="287" type="curve" smooth="yes"/>
      <point x="563" y="186"/>
      <point x="531" y="164"/>
    </contour>
  </outline>
</glyph>
<glyph name="Ddotbelow.sc" format="1">
  <advance width="791"/>
  <outline>
    <contour>
      <point x="350" y="-8" type="curve" smooth="yes"/>
      <point x="630" y="-8"/>
      <point x="759" y="85"/>
      <point x="759" y="287" type="curve" smooth="yes"/>
      <point x="759" y="490"/>
      <point x="629" y="585"/>
      <point x="348" y="585" type="curve" smooth="yes"/>
      <point x="277" y="585"/>
      <point x="187" y="582"/>
      <point x="63" y="575" type="curve"/>
      <point x="63" y="1" type="line"/>
      <point x="126" y="-4"/>
      <point x="249" y="-8"/>
    </contour>
    <contour>
      <point x="385" y="164" type="curve" smooth="yes"/>
      <point x="347" y="164"/>
      <point x="309" y="166"/>
      <point x="286" y="170" type="curve"/>
      <point x="286" y="409" type="line"/>
      <point x="333" y="411"/>
      <point x="355" y="412"/>
      <point x="381" y="412" type="curve" smooth="yes"/>
      <point x="496" y="412"/>
      <point x="531" y="383"/>
      <point x="531" y="287" type="curve" smooth="yes"/>
      <point x="531" y="188"/>
      <point x="502" y="164"/>
    </contour>
    <contour>
      <point x="389" y="-181" type="curve" smooth="yes"/>
      <point x="454" y="-181"/>
      <point x="474" y="-154"/>
      <point x="474" y="-103" type="curve" smooth="yes"/>
      <point x="474" y="-52"/>
      <point x="454" y="-24"/>
      <point x="389" y="-24" type="curve" smooth="yes"/>
      <point x="327" y="-24"/>
      <point x="303" y="-48"/>
      <point x="303" y="-103" type="curve" smooth="yes"/>
      <point x="303" y="-157"/>
      <point x="327" y="-181"/>
    </contour>
  </outline>
</glyph>
<glyph name="Egrave.sc" format="1">
  <advance width="681"/>
  <outline>
    <contour>
      <point x="63" y="0" type="line"/>
      <point x="643" y="0" type="line"/>
      <point x="643" y="160" type="line"/>
      <point x="286" y="160" type="line"/>
      <point x="286" y="222" type="line"/>
      <point x="596" y="222" type="line"/>
      <point x="596" y="356" type="line"/>
      <point x="286" y="356" type="line"/>
      <point x="286" y="418" type="line"/>
      <point x="634" y="418" type="line"/>
      <point x="634" y="577" type="line"/>
      <point x="63" y="577" type="line"/>
    </contour>
    <contour>
      <point x="300" y="631" type="line"/>
      <point x="456" y="638" type="line"/>
      <point x="402" y="802" type="line"/>
      <point x="178" y="802" type="line"/>
    </contour>
  </outline>
</glyph>
<glyph name="Einvertedbreve.sc" format="1">
  <advance width="681"/>
  <outline>
    <contour>
      <point x="109" y="643" type="curve"/>
      <point x="250" y="643" type="line"/>
      <point x="250" y="684"/>
      <point x="268" y="710"/>
      <point x="348" y="710" type="curve" smooth="yes"/>
      <point x="429" y="710"/>
      <point x="446" y="684"/>
      <point x="446" y="643" type="curve"/>
      <point x="586" y="643" type="line"/>
      <point x="586" y="733"/>
      <point x="535" y="807"/>
      <point x="348" y="807" type="curve" smooth="yes"/>
      <point x="160" y="807"/>
      <point x="109" y="729"/>
    </contour>
    <contour>
      <point x="63" y="0" type="line"/>
      <point x="643" y="0" type="line"/>
      <point x="643" y="160" type="line"/>
      <point x="286" y="160" type="line"/>
      <point x="286" y="222" type="line"/>
      <point x="596" y="222" type="line"/>
      <point x="596" y="356" type="line"/>
      <point x="286" y="356" type="line"/>
      <point x="286" y="418" type="line"/>
      <point x="634" y="418" type="line"/>
      <point x="634" y="577" type="line"/>
      <point x="63" y="577" type="line"/>
    </contour>
  </outline>
</glyph>
<glyph name="Etilde.sc" format="1">
  <advance width="681"/>
  <outline>
    <contour>
      <point x="117" y="639" type="line"/>
      <point x="155" y="663"/>
      <point x="181" y="667"/>
      <point x="212" y="667" type="curve" smooth="yes"/>
      <point x="285" y="667"/>
      <point x="356" y="640"/>
      <point x="429" y="640" type="curve" smooth="yes"/>
      <point x="482" y="640"/>
      <point x="551" y="685"/>
      <point x="601" y="777" type="curve"/>
      <point x="580" y="810" type="line"/>
      <point x="538" y="786"/>
      <point x="513" y="783"/>
      <point x="484" y="783" type="curve" smooth="yes"/>
      <point x="411" y="783"/>
      <point x="340" y="809"/>
      <point x="268" y="809" type="curve" smooth="yes"/>
      <point x="211" y="809"/>
      <point x="142" y="763"/>
      <point x="95" y="672" type="curve"/>
    </contour>
    <contour>
      <point x="63" y="0" type="line"/>
      <point x="643" y="0" type="line"/>
      <point x="643" y="160" type="line"/>
      <point x="286" y="160" type="line"/>
      <point x="286" y="222" type="line"/>
      <point x="596" y="222" type="line"/>
      <point x="596" y="356" type="line"/>
      <point x="286" y="356" type="line"/>
      <point x="286" y="418" type="line"/>
      <point x="634" y="418" type="line"/>
      <point x="634" y="577" type="line"/>
      <point x="63" y="577" type="line"/>
    </contour>
  </outline>
</glyph>
<glyph name="Euro.tab" format="1">
  <advance width="670"/>
  <outline>
    <contour>
      <point x="-5" y="392" type="line"/>
      <point x="59" y="392" type="line"/>
      <point x="59" y="368" type="line"/>
      <point x="59" y="347" type="line"/>
      <point x="-5" y="347" type="line"/>
      <point x="-5" y="223" type="line"/>
      <point x="76" y="223" type="line"/>
      <point x="118" y="70"/>
      <point x="240" y="-10"/>
      <point x="474" y="-10" type="curve" smooth="yes"/>
      <point x="549" y="-10"/>
      <point x="628" y="-2"/>
      <point x="668" y="11" type="curve"/>
      <point x="668" y="201" type="line"/>
      <point x="614" y="187"/>
      <point x="567" y="184"/>
      <point x="510" y="184" type="curve" smooth="yes"/>
      <point x="400" y="184"/>
      <point x="345" y="191"/>
      <point x="317" y="223" type="curve"/>
      <point x="555" y="223" type="line"/>
      <point x="574" y="347" type="line"/>
      <point x="290" y="347" type="line"/>
      <point x="290" y="369" type="line"/>
      <point x="290" y="392" type="line"/>
      <point x="585" y="392" type="line"/>
      <point x="603" y="516" type="line"/>
      <point x="317" y="516" type="line"/>
      <point x="345" y="548"/>
      <point x="399" y="555"/>
      <point x="507" y="555" type="curve" smooth="yes"/>
      <point x="540" y="555"/>
      <point x="598" y="548"/>
      <point x="614" y="543" type="curve"/>
      <point x="667" y="728" type="line"/>
      <point x="628" y="734"/>
      <point x="555" y="750"/>
      <point x="456" y="750" type="curve" smooth="yes"/>
      <point x="238" y="750"/>
      <point x="119" y="669"/>
      <point x="77" y="516" type="curve"/>
      <point x="-5" y="516" type="line"/>
    </contour>
  </outline>
</glyph>
<glyph name="Gbreve.sc" format="1">
  <advance width="718"/>
  <outline>
    <contour>
      <point x="425" y="-14" type="curve" smooth="yes"/>
      <point x="493" y="-14"/>
      <point x="599" y="4"/>
      <point x="672" y="26" type="curve"/>
      <point x="672" y="293" type="line"/>
      <point x="466" y="293" type="line"/>
      <point x="466" y="166" type="line"/>
      <point x="426" y="166" type="line" smooth="yes"/>
      <point x="287" y="166"/>
      <point x="262" y="174"/>
      <point x="262" y="288" type="curve" smooth="yes"/>
      <point x="262" y="407"/>
      <point x="287" y="412"/>
      <point x="450" y="412" type="curve" smooth="yes"/>
      <point x="495" y="412"/>
      <point x="572" y="406"/>
      <point x="662" y="397" type="curve"/>
      <point x="662" y="572" type="line"/>
      <point x="610" y="582"/>
      <point x="510" y="590"/>
      <point x="433" y="590" type="curve" smooth="yes"/>
      <point x="162" y="590"/>
      <point x="32" y="494"/>
      <point x="32" y="288" type="curve" smooth="yes"/>
      <point x="32" y="79"/>
      <point x="156" y="-14"/>
    </contour>
    <contour>
      <point x="388" y="633" type="curve" smooth="yes"/>
      <point x="576" y="633"/>
      <point x="627" y="706"/>
      <point x="627" y="797" type="curve"/>
      <point x="486" y="797" type="line"/>
      <point x="486" y="755"/>
      <point x="469" y="729"/>
      <point x="388" y="729" type="curve" smooth="yes"/>
      <point x="309" y="729"/>
      <point x="290" y="755"/>
      <point x="290" y="797" type="curve"/>
      <point x="150" y="797" type="line"/>
      <point x="150" y="710"/>
      <point x="200" y="633"/>
    </contour>
  </outline>
</glyph>
<glyph name="Hbar.sc" format="1">
  <advance width="849"/>
  <outline>
    <contour>
      <point x="13" y="413" type="line"/>
      <point x="69" y="413" type="line"/>
      <point x="69" y="0" type="line"/>
      <point x="292" y="0" type="line"/>
      <point x="292" y="194" type="line"/>
      <point x="557" y="194" type="line"/>
      <point x="557" y="0" type="line"/>
      <point x="780" y="0" type="line"/>
      <point x="780" y="413" type="line"/>
      <point x="838" y="413" type="line"/>
      <point x="838" y="508" type="line"/>
      <point x="780" y="508" type="line"/>
      <point x="780" y="577" type="line"/>
      <point x="557" y="577" type="line"/>
      <point x="557" y="508" type="line"/>
      <point x="292" y="508" type="line"/>
      <point x="292" y="577" type="line"/>
      <point x="69" y="577" type="line"/>
      <point x="69" y="508" type="line"/>
      <point x="13" y="508" type="line"/>
    </contour>
    <contour>
      <point x="292" y="359" type="line"/>
      <point x="292" y="413" type="line"/>
      <point x="557" y="413" type="line"/>
      <point x="557" y="359" type="line"/>
    </contour>
  </outline>
</glyph>
<glyph name="I.sc" format="1">
  <advance width="349"/>
  <outline>
    <contour>
      <point x="129" y="0" type="move" name="ogonek"/>
    </contour>
    <contour>
      <point x="115" y="760" type="move" name="topUC"/>
    </contour>
    <contour>
      <point x="115" y="0" type="move" name="bottom"/>
    </contour>
    <contour>
      <point x="63" y="0" type="line"/>
      <point x="286" y="0" type="line"/>
      <point x="286" y="577" type="line"/>
      <point x="63" y="577" type="line"/>
    </contour>
  </outline>
</glyph>
<glyph name="Idieresis.sc" format="1">
  <advance width="349"/>
  <outline>
    <contour>
      <point x="63" y="0" type="line"/>
      <point x="286" y="0" type="line"/>
      <point x="286" y="577" type="line"/>
      <point x="63" y="577" type="line"/>
    </contour>
    <contour>
      <point x="32" y="612" type="curve" smooth="yes"/>
      <point x="118" y="612"/>
      <point x="146" y="648"/>
      <point x="146" y="721" type="curve" smooth="yes"/>
      <point x="146" y="793"/>
      <point x="118" y="830"/>
      <point x="32" y="830" type="curve" smooth="yes"/>
      <point x="-51" y="830"/>
      <point x="-83" y="796"/>
      <point x="-83" y="721" type="curve" smooth="yes"/>
      <point x="-83" y="644"/>
      <point x="-51" y="612"/>
    </contour>
    <contour>
      <point x="327" y="612" type="curve" smooth="yes"/>
      <point x="412" y="612"/>
      <point x="441" y="648"/>
      <point x="441" y="721" type="curve" smooth="yes"/>
      <point x="441" y="793"/>
      <point x="412" y="830"/>
      <point x="327" y="830" type="curve" smooth="yes"/>
      <point x="244" y="830"/>
      <point x="213" y="796"/>
      <point x="213" y="721" type="curve" smooth="yes"/>
      <point x="213" y="644"/>
      <point x="244" y="612"/>
    </contour>
  </outline>
</glyph>
<glyph name="Idotaccent.sc" format="1">
  <advance width="349"/>
  <outline>
    <contour>
      <point x="63" y="0" type="line"/>
      <point x="286" y="0" type="line"/>
      <point x="286" y="577" type="line"/>
      <point x="63" y="577" type="line"/>
    </contour>
    <contour>
      <point x="176" y="613" type="curve" smooth="yes"/>
      <point x="262" y="613"/>
      <point x="290" y="649"/>
      <point x="290" y="722" type="curve" smooth="yes"/>
      <point x="290" y="794"/>
      <point x="262" y="831"/>
      <point x="176" y="831" type="curve" smooth="yes"/>
      <point x="93" y="831"/>
      <point x="61" y="797"/>
      <point x="61" y="722" type="curve" smooth="yes"/>
      <point x="61" y="645"/>
      <point x="93" y="613"/>
    </contour>
  </outline>
</glyph>
<glyph name="Jcircumflex.sc" format="1">
  <advance width="348"/>
  <outline>
    <contour>
      <point x="138" y="-180" type="line"/>
      <point x="249" y="-55"/>
      <point x="288" y="32"/>
      <point x="288" y="145" type="curve" smooth="yes"/>
      <point x="288" y="577" type="line"/>
      <point x="65" y="577" type="line"/>
      <point x="65" y="162" type="line" smooth="yes"/>
      <point x="65" y="54"/>
      <point x="48" y="-12"/>
      <point x="-3" y="-121" type="curve"/>
    </contour>
    <contour>
      <point x="-41" y="618" type="line"/>
      <point x="178" y="684" type="line"/>
      <point x="397" y="618" type="line"/>
      <point x="397" y="755" type="line"/>
      <point x="175" y="822" type="line"/>
      <point x="-41" y="755" type="line"/>
    </contour>
  </outline>
</glyph>
<glyph name="Lacute.sc" format="1">
  <advance width="605"/>
  <outline>
    <contour>
      <point x="63" y="0" type="line"/>
      <point x="588" y="0" type="line"/>
      <point x="588" y="164" type="line"/>
      <point x="286" y="164" type="line"/>
      <point x="286" y="577" type="line"/>
      <point x="63" y="577" type="line"/>
    </contour>
    <contour>
      <point x="257" y="631" type="line"/>
      <point x="379" y="802" type="line"/>
      <point x="156" y="802" type="line"/>
      <point x="101" y="640" type="line"/>
    </contour>
  </outline>
</glyph>
<glyph name="Lcaron.sc" format="1">
  <advance width="605"/>
  <outline>
    <contour>
      <point x="63" y="0" type="line"/>
      <point x="588" y="0" type="line"/>
      <point x="588" y="164" type="line"/>
      <point x="286" y="164" type="line"/>
      <point x="286" y="577" type="line"/>
      <point x="63" y="577" type="line"/>
    </contour>
    <contour>
      <point x="391" y="465" type="line"/>
      <point x="510" y="465" type="line"/>
      <point x="560" y="643" type="line"/>
      <point x="391" y="643" type="line"/>
    </contour>
  </outline>
</glyph>
<glyph name="Ldot.sc" format="1">
  <advance width="618"/>
  <outline>
    <contour>
      <point x="63" y="0" type="line"/>
      <point x="588" y="0" type="line"/>
      <point x="588" y="164" type="line"/>
      <point x="286" y="164" type="line"/>
      <point x="286" y="577" type="line"/>
      <point x="63" y="577" type="line"/>
    </contour>
    <contour>
      <point x="496" y="215" type="curve" smooth="yes"/>
      <point x="582" y="215"/>
      <point x="610" y="251"/>
      <point x="610" y="324" type="curve" smooth="yes"/>
      <point x="610" y="396"/>
      <point x="582" y="433"/>
      <point x="496" y="433" type="curve" smooth="yes"/>
      <point x="413" y="433"/>
      <point x="381" y="400"/>
      <point x="381" y="324" type="curve" smooth="yes"/>
      <point x="381" y="247"/>
      <point x="413" y="215"/>
    </contour>
  </outline>
</glyph>
<glyph name="Ntilde.sc" format="1">
  <advance width="790"/>
  <outline>
    <contour>
      <point x="169" y="639" type="line"/>
      <point x="207" y="663"/>
      <point x="233" y="667"/>
      <point x="264" y="667" type="curve" smooth="yes"/>
      <point x="337" y="667"/>
      <point x="408" y="640"/>
      <point x="481" y="640" type="curve" smooth="yes"/>
      <point x="534" y="640"/>
      <point x="604" y="685"/>
      <point x="653" y="777" type="curve"/>
      <point x="632" y="810" type="line"/>
      <point x="590" y="786"/>
      <point x="565" y="783"/>
      <point x="536" y="783" type="curve" smooth="yes"/>
      <point x="463" y="783"/>
      <point x="392" y="809"/>
      <point x="320" y="809" type="curve" smooth="yes"/>
      <point x="264" y="809"/>
      <point x="194" y="763"/>
      <point x="147" y="672" type="curve"/>
    </contour>
    <contour>
      <point x="63" y="0" type="line"/>
      <point x="259" y="0" type="line"/>
      <point x="259" y="282" type="line"/>
      <point x="268" y="282" type="line"/>
      <point x="345" y="199" type="line"/>
      <point x="560" y="0" type="line"/>
      <point x="727" y="0" type="line"/>
      <point x="727" y="577" type="line"/>
      <point x="531" y="577" type="line"/>
      <point x="531" y="295" type="line"/>
      <point x="522" y="295" type="line"/>
      <point x="459" y="360" type="line"/>
      <point x="230" y="577" type="line"/>
      <point x="63" y="577" type="line"/>
    </contour>
  </outline>
</glyph>
<glyph name="Oacute.sc" format="1">
  <advance width="802"/>
  <outline>
    <contour>
      <point x="402" y="-8" type="curve" smooth="yes"/>
      <point x="639" y="-8"/>
      <point x="771" y="98"/>
      <point x="771" y="288" type="curve" smooth="yes"/>
      <point x="771" y="479"/>
      <point x="640" y="585"/>
      <point x="402" y="585" type="curve" smooth="yes"/>
      <point x="161" y="585"/>
      <point x="32" y="481"/>
      <point x="32" y="288" type="curve" smooth="yes"/>
      <point x="32" y="96"/>
      <point x="163" y="-8"/>
    </contour>
    <contour>
      <point x="402" y="165" type="curve" smooth="yes"/>
      <point x="278" y="165"/>
      <point x="260" y="180"/>
      <point x="260" y="288" type="curve" smooth="yes"/>
      <point x="260" y="393"/>
      <point x="282" y="412"/>
      <point x="402" y="412" type="curve" smooth="yes"/>
      <point x="520" y="412"/>
      <point x="544" y="391"/>
      <point x="544" y="288" type="curve" smooth="yes"/>
      <point x="544" y="179"/>
      <point x="528" y="165"/>
    </contour>
    <contour>
      <point x="477" y="631" type="line"/>
      <point x="599" y="802" type="line"/>
      <point x="376" y="802" type="line"/>
      <point x="321" y="640" type="line"/>
    </contour>
  </outline>
</glyph>
<glyph name="Obreve.sc" format="1">
  <advance width="802"/>
  <outline>
    <contour>
      <point x="402" y="-8" type="curve" smooth="yes"/>
      <point x="639" y="-8"/>
      <point x="771" y="98"/>
      <point x="771" y="288" type="curve" smooth="yes"/>
      <point x="771" y="479"/>
      <point x="640" y="585"/>
      <point x="402" y="585" type="curve" smooth="yes"/>
      <point x="161" y="585"/>
      <point x="32" y="481"/>
      <point x="32" y="288" type="curve" smooth="yes"/>
      <point x="32" y="96"/>
      <point x="163" y="-8"/>
    </contour>
    <contour>
      <point x="402" y="165" type="curve" smooth="yes"/>
      <point x="278" y="165"/>
      <point x="260" y="180"/>
      <point x="260" y="288" type="curve" smooth="yes"/>
      <point x="260" y="393"/>
      <point x="282" y="412"/>
      <point x="402" y="412" type="curve" smooth="yes"/>
      <point x="520" y="412"/>
      <point x="544" y="391"/>
      <point x="544" y="288" type="curve" smooth="yes"/>
      <point x="544" y="179"/>
      <point x="528" y="165"/>
    </contour>
    <contour>
      <point x="399" y="633" type="curve" smooth="yes"/>
      <point x="559" y="633"/>
      <point x="637" y="687"/>
      <point x="637" y="797" type="curve"/>
      <point x="497" y="797" type="line"/>
      <point x="497" y="748"/>
      <point x="470" y="729"/>
      <point x="399" y="729" type="curve" smooth="yes"/>
      <point x="329" y="729"/>
      <point x="301" y="748"/>
      <point x="301" y="797" type="curve"/>
      <point x="160" y="797" type="line"/>
      <point x="160" y="689"/>
      <point x="242" y="633"/>
    </contour>
  </outline>
</glyph>
<glyph name="Ohungarumlaut.sc" format="1">
  <advance width="801"/>
  <outline>
    <contour>
      <point x="401" y="-8" type="curve" smooth="yes"/>
      <point x="639" y="-8"/>
      <point x="770" y="98"/>
      <point x="770" y="288" type="curve" smooth="yes"/>
      <point x="770" y="479"/>
      <point x="639" y="585"/>
      <point x="401" y="585" type="curve" smooth="yes"/>
      <point x="160" y="585"/>
      <point x="31" y="481"/>
      <point x="31" y="288" type="curve" smooth="yes"/>
      <point x="31" y="97"/>
      <point x="161" y="-8"/>
    </contour>
    <contour>
      <point x="401" y="165" type="curve" smooth="yes"/>
      <point x="286" y="165"/>
      <point x="259" y="172"/>
      <point x="259" y="288" type="curve" smooth="yes"/>
      <point x="259" y="401"/>
      <point x="290" y="412"/>
      <point x="401" y="412" type="curve" smooth="yes"/>
      <point x="511" y="412"/>
      <point x="543" y="398"/>
      <point x="543" y="288" type="curve" smooth="yes"/>
      <point x="543" y="171"/>
      <point x="517" y="165"/>
    </contour>
    <contour>
      <point x="332" y="633" type="line"/>
      <point x="455" y="804" type="line"/>
      <point x="234" y="804" type="line"/>
      <point x="180" y="640" type="line"/>
    </contour>
    <contour>
      <point x="569" y="633" type="line"/>
      <point x="691" y="804" type="line"/>
      <point x="469" y="804" type="line"/>
      <point x="416" y="640" type="line"/>
    </contour>
  </outline>
</glyph>
<glyph name="Omacron.sc" format="1">
  <advance width="801"/>
  <outline>
    <contour>
      <point x="401" y="-8" type="curve" smooth="yes"/>
      <point x="639" y="-8"/>
      <point x="770" y="98"/>
      <point x="770" y="288" type="curve" smooth="yes"/>
      <point x="770" y="479"/>
      <point x="639" y="585"/>
      <point x="401" y="585" type="curve" smooth="yes"/>
      <point x="160" y="585"/>
      <point x="31" y="481"/>
      <point x="31" y="288" type="curve" smooth="yes"/>
      <point x="31" y="97"/>
      <point x="161" y="-8"/>
    </contour>
    <contour>
      <point x="401" y="165" type="curve" smooth="yes"/>
      <point x="286" y="165"/>
      <point x="259" y="172"/>
      <point x="259" y="288" type="curve" smooth="yes"/>
      <point x="259" y="401"/>
      <point x="290" y="412"/>
      <point x="401" y="412" type="curve" smooth="yes"/>
      <point x="511" y="412"/>
      <point x="543" y="398"/>
      <point x="543" y="288" type="curve" smooth="yes"/>
      <point x="543" y="171"/>
      <point x="517" y="165"/>
    </contour>
    <contour>
      <point x="183" y="658" type="line"/>
      <point x="617" y="658" type="line"/>
      <point x="617" y="796" type="line"/>
      <point x="183" y="796" type="line"/>
    </contour>
  </outline>
</glyph>
<glyph name="Otilde.sc" format="1">
  <advance width="801"/>
  <outline>
    <contour>
      <point x="401" y="-8" type="curve" smooth="yes"/>
      <point x="639" y="-8"/>
      <point x="770" y="98"/>
      <point x="770" y="288" type="curve" smooth="yes"/>
      <point x="770" y="479"/>
      <point x="639" y="585"/>
      <point x="401" y="585" type="curve" smooth="yes"/>
      <point x="160" y="585"/>
      <point x="31" y="481"/>
      <point x="31" y="288" type="curve" smooth="yes"/>
      <point x="31" y="97"/>
      <point x="161" y="-8"/>
    </contour>
    <contour>
      <point x="401" y="165" type="curve" smooth="yes"/>
      <point x="286" y="165"/>
      <point x="259" y="172"/>
      <point x="259" y="288" type="curve" smooth="yes"/>
      <point x="259" y="401"/>
      <point x="290" y="412"/>
      <point x="401" y="412" type="curve" smooth="yes"/>
      <point x="511" y="412"/>
      <point x="543" y="398"/>
      <point x="543" y="288" type="curve" smooth="yes"/>
      <point x="543" y="171"/>
      <point x="517" y="165"/>
    </contour>
    <contour>
      <point x="170" y="639" type="line"/>
      <point x="208" y="663"/>
      <point x="234" y="667"/>
      <point x="265" y="667" type="curve" smooth="yes"/>
      <point x="338" y="667"/>
      <point x="409" y="640"/>
      <point x="482" y="640" type="curve" smooth="yes"/>
      <point x="535" y="640"/>
      <point x="604" y="685"/>
      <point x="654" y="777" type="curve"/>
      <point x="633" y="810" type="line"/>
      <point x="591" y="786"/>
      <point x="566" y="783"/>
      <point x="537" y="783" type="curve" smooth="yes"/>
      <point x="464" y="783"/>
      <point x="393" y="809"/>
      <point x="321" y="809" type="curve" smooth="yes"/>
      <point x="264" y="809"/>
      <point x="195" y="763"/>
      <point x="148" y="672" type="curve"/>
    </contour>
  </outline>
</glyph>
<glyph name="P.sc" format="1">
  <advance width="722"/>
  <outline>
    <contour>
      <point x="63" y="0" type="line"/>
      <point x="286" y="0" type="line"/>
      <point x="286" y="146" type="line"/>
      <point x="307" y="146" type="line" smooth="yes"/>
      <point x="567" y="146"/>
      <point x="704" y="220"/>
      <point x="704" y="362" type="curve" smooth="yes"/>
      <point x="704" y="519"/>
      <point x="586" y="585"/>
      <point x="305" y="585" type="curve" smooth="yes"/>
      <point x="232" y="585"/>
      <point x="152" y="581"/>
      <point x="63" y="573" type="curve"/>
    </contour>
    <contour>
      <point x="361" y="299" type="curve" smooth="yes"/>
      <point x="333" y="299"/>
      <point x="314" y="300"/>
      <point x="286" y="303" type="curve"/>
      <point x="286" y="420" type="line"/>
      <point x="322" y="422"/>
      <point x="347" y="423"/>
      <point x="361" y="423" type="curve" smooth="yes"/>
      <point x="458" y="423"/>
      <point x="477" y="409"/>
      <point x="477" y="362" type="curve" smooth="yes"/>
      <point x="477" y="315"/>
      <point x="453" y="299"/>
    </contour>
  </outline>
</glyph>
<glyph name="Sdotbelow.sc" format="1">
  <advance width="676"/>
  <outline>
    <contour>
      <point x="331" y="-10" type="curve" smooth="yes"/>
      <point x="549" y="-10"/>
      <point x="650" y="53"/>
      <point x="650" y="190" type="curve" smooth="yes"/>
      <point x="650" y="292"/>
      <point x="564" y="349"/>
      <point x="388" y="362" type="curve" smooth="yes"/>
      <point x="317" y="367"/>
      <point x="281" y="377"/>
      <point x="281" y="394" type="curve" smooth="yes"/>
      <point x="281" y="411"/>
      <point x="306" y="416"/>
      <point x="385" y="416" type="curve" smooth="yes"/>
      <point x="454" y="416"/>
      <point x="542" y="406"/>
      <point x="611" y="390" type="curve"/>
      <point x="611" y="559" type="line"/>
      <point x="484" y="579"/>
      <point x="427" y="585"/>
      <point x="358" y="585" type="curve" smooth="yes"/>
      <point x="161" y="585"/>
      <point x="45" y="514"/>
      <point x="45" y="393" type="curve" smooth="yes"/>
      <point x="45" y="277"/>
      <point x="129" y="220"/>
      <point x="317" y="208" type="curve"/>
      <point x="394" y="200"/>
      <point x="414" y="194"/>
      <point x="414" y="179" type="curve" smooth="yes"/>
      <point x="414" y="166"/>
      <point x="380" y="159"/>
      <point x="317" y="159" type="curve" smooth="yes"/>
      <point x="234" y="159"/>
      <point x="149" y="168"/>
      <point x="39" y="187" type="curve"/>
      <point x="39" y="12" type="line"/>
      <point x="128" y="-1"/>
      <point x="251" y="-10"/>
    </contour>
    <contour>
      <point x="343" y="-181" type="curve" smooth="yes"/>
      <point x="408" y="-181"/>
      <point x="428" y="-154"/>
      <point x="428" y="-103" type="curve" smooth="yes"/>
      <point x="428" y="-52"/>
      <point x="408" y="-24"/>
      <point x="343" y="-24" type="curve" smooth="yes"/>
      <point x="281" y="-24"/>
      <point x="257" y="-48"/>
      <point x="257" y="-103" type="curve" smooth="yes"/>
      <point x="257" y="-157"/>
      <point x="281" y="-181"/>
    </contour>
  </outline>
</glyph>
<glyph name="T.sc" format="1">
  <advance width="656"/>
  <outline>
    <contour>
      <point x="244" y="760" type="move" name="topUC"/>
    </contour>
    <contour>
      <point x="245" y="0" type="move" name="bottom"/>
    </contour>
    <contour>
      <point x="216" y="0" type="line"/>
      <point x="439" y="0" type="line"/>
      <point x="439" y="413" type="line"/>
      <point x="632" y="413" type="line"/>
      <point x="632" y="577" type="line"/>
      <point x="24" y="577" type="line"/>
      <point x="24" y="413" type="line"/>
      <point x="216" y="413" type="line"/>
    </contour>
  </outline>
</glyph>
<glyph name="Thorn.sc" format="1">
  <advance width="724"/>
  <outline>
    <contour>
      <point x="63" y="0" type="line"/>
      <point x="286" y="0" type="line"/>
      <point x="286" y="73" type="line"/>
      <point x="307" y="73" type="line" smooth="yes"/>
      <point x="567" y="73"/>
      <point x="704" y="147"/>
      <point x="704" y="289" type="curve" smooth="yes"/>
      <point x="704" y="446"/>
      <point x="586" y="512"/>
      <point x="305" y="512" type="curve" smooth="yes"/>
      <point x="286" y="512" type="line"/>
      <point x="286" y="577" type="line"/>
      <point x="63" y="577" type="line"/>
    </contour>
    <contour>
      <point x="361" y="226" type="curve" smooth="yes"/>
      <point x="333" y="226"/>
      <point x="314" y="227"/>
      <point x="286" y="230" type="curve"/>
      <point x="286" y="347" type="line"/>
      <point x="322" y="349"/>
      <point x="347" y="350"/>
      <point x="361" y="350" type="curve" smooth="yes"/>
      <point x="458" y="350"/>
      <point x="477" y="336"/>
      <point x="477" y="289" type="curve" smooth="yes"/>
      <point x="477" y="242"/>
      <point x="453" y="226"/>
    </contour>
  </outline>
</glyph>
<glyph name="Uinvertedbreve.sc" format="1">
  <advance width="820"/>
  <outline>
    <contour>
      <point x="410" y="-8" type="curve" smooth="yes"/>
      <point x="682" y="-8"/>
      <point x="765" y="81"/>
      <point x="765" y="253" type="curve" smooth="yes"/>
      <point x="765" y="581" type="line"/>
      <point x="541" y="581" type="line"/>
      <point x="541" y="236" type="line" smooth="yes"/>
      <point x="541" y="204"/>
      <point x="503" y="165"/>
      <point x="410" y="165" type="curve" smooth="yes"/>
      <point x="317" y="165"/>
      <point x="278" y="204"/>
      <point x="278" y="236" type="curve" smooth="yes"/>
      <point x="278" y="581" type="line"/>
      <point x="55" y="581" type="line"/>
      <point x="55" y="253" type="line" smooth="yes"/>
      <point x="55" y="81"/>
      <point x="137" y="-8"/>
    </contour>
    <contour>
      <point x="640" y="643" type="line"/>
      <point x="640" y="733"/>
      <point x="588" y="807"/>
      <point x="401" y="807" type="curve" smooth="yes"/>
      <point x="213" y="807"/>
      <point x="163" y="729"/>
      <point x="163" y="643" type="curve"/>
      <point x="303" y="643" type="line"/>
      <point x="303" y="684"/>
      <point x="322" y="710"/>
      <point x="401" y="710" type="curve" smooth="yes"/>
      <point x="482" y="710"/>
      <point x="499" y="684"/>
      <point x="499" y="643" type="curve"/>
    </contour>
  </outline>
</glyph>
<glyph name="Umacron.sc" format="1">
  <advance width="820"/>
  <outline>
    <contour>
      <point x="410" y="-8" type="curve" smooth="yes"/>
      <point x="682" y="-8"/>
      <point x="765" y="81"/>
      <point x="765" y="253" type="curve" smooth="yes"/>
      <point x="765" y="581" type="line"/>
      <point x="541" y="581" type="line"/>
      <point x="541" y="236" type="line" smooth="yes"/>
      <point x="541" y="204"/>
      <point x="503" y="165"/>
      <point x="410" y="165" type="curve" smooth="yes"/>
      <point x="317" y="165"/>
      <point x="278" y="204"/>
      <point x="278" y="236" type="curve" smooth="yes"/>
      <point x="278" y="581" type="line"/>
      <point x="55" y="581" type="line"/>
      <point x="55" y="253" type="line" smooth="yes"/>
      <point x="55" y="81"/>
      <point x="137" y="-8"/>
    </contour>
    <contour>
      <point x="187" y="658" type="line"/>
      <point x="622" y="658" type="line"/>
      <point x="622" y="796" type="line"/>
      <point x="187" y="796" type="line"/>
    </contour>
  </outline>
</glyph>
<glyph name="Utilde.sc" format="1">
  <advance width="820"/>
  <outline>
    <contour>
      <point x="410" y="-8" type="curve" smooth="yes"/>
      <point x="682" y="-8"/>
      <point x="765" y="81"/>
      <point x="765" y="253" type="curve" smooth="yes"/>
      <point x="765" y="581" type="line"/>
      <point x="541" y="581" type="line"/>
      <point x="541" y="236" type="line" smooth="yes"/>
      <point x="541" y="204"/>
      <point x="503" y="165"/>
      <point x="410" y="165" type="curve" smooth="yes"/>
      <point x="317" y="165"/>
      <point x="278" y="204"/>
      <point x="278" y="236" type="curve" smooth="yes"/>
      <point x="278" y="581" type="line"/>
      <point x="55" y="581" type="line"/>
      <point x="55" y="253" type="line" smooth="yes"/>
      <point x="55" y="81"/>
      <point x="137" y="-8"/>
    </contour>
    <contour>
      <point x="177" y="639" type="line"/>
      <point x="215" y="663"/>
      <point x="242" y="667"/>
      <point x="273" y="667" type="curve" smooth="yes"/>
      <point x="346" y="667"/>
      <point x="417" y="640"/>
      <point x="490" y="640" type="curve" smooth="yes"/>
      <point x="543" y="640"/>
      <point x="612" y="685"/>
      <point x="661" y="777" type="curve"/>
      <point x="641" y="810" type="line"/>
      <point x="598" y="786"/>
      <point x="573" y="783"/>
      <point x="544" y="783" type="curve" smooth="yes"/>
      <point x="472" y="783"/>
      <point x="401" y="809"/>
      <point x="329" y="809" type="curve" smooth="yes"/>
      <point x="272" y="809"/>
      <point x="203" y="763"/>
      <point x="156" y="672" type="curve"/>
    </contour>
  </outline>
</glyph>
<glyph name="V.sc" format="1">
  <advance width="751"/>
  <outline>
    <contour>
      <point x="229" y="0" type="line"/>
      <point x="522" y="0" type="line"/>
      <point x="757" y="577" type="line"/>
      <point x="516" y="577" type="line"/>
      <point x="420" y="299" type="line"/>
      <point x="383" y="172" type="line"/>
      <point x="374" y="172" type="line"/>
      <point x="337" y="299" type="line"/>
      <point x="240" y="577" type="line"/>
      <point x="-6" y="577" type="line"/>
    </contour>
  </outline>
</glyph>
<glyph name="W.sc" format="1">
  <advance width="1097"/>
  <outline>
    <contour>
      <point x="436" y="760" type="move" name="topUC"/>
    </contour>
    <contour>
      <point x="163" y="0" type="line"/>
      <point x="467" y="0" type="line"/>
      <point x="509" y="147" type="line"/>
      <point x="543" y="331" type="line"/>
      <point x="553" y="331" type="line"/>
      <point x="587" y="146" type="line"/>
      <point x="630" y="0" type="line"/>
      <point x="934" y="0" type="line"/>
      <point x="1091" y="577" type="line"/>
      <point x="851" y="577" type="line"/>
      <point x="794" y="305" type="line"/>
      <point x="779" y="195" type="line"/>
      <point x="765" y="195" type="line"/>
      <point x="741" y="305" type="line"/>
      <point x="657" y="577" type="line"/>
      <point x="440" y="577" type="line"/>
      <point x="356" y="305" type="line"/>
      <point x="332" y="195" type="line"/>
      <point x="318" y="195" type="line"/>
      <point x="303" y="305" type="line"/>
      <point x="246" y="577" type="line"/>
      <point x="6" y="577" type="line"/>
    </contour>
  </outline>
</glyph>
<glyph name="Y.sc" format="1">
  <advance width="717"/>
  <outline>
    <contour>
      <point x="253" y="760" type="move" name="topUC"/>
    </contour>
    <contour>
      <point x="242" y="0" type="line"/>
      <point x="476" y="0" type="line"/>
      <point x="476" y="174" type="line"/>
      <point x="726" y="577" type="line"/>
      <point x="483" y="577" type="line"/>
      <point x="391" y="412" type="line"/>
      <point x="362" y="339" type="line"/>
      <point x="354" y="339" type="line"/>
      <point x="326" y="412" type="line"/>
      <point x="231" y="577" type="line"/>
      <point x="-10" y="577" type="line"/>
      <point x="242" y="174" type="line"/>
    </contour>
  </outline>
</glyph>
<glyph name="Ygrave.sc" format="1">
  <advance width="717"/>
  <outline>
    <contour>
      <point x="242" y="0" type="line"/>
      <point x="476" y="0" type="line"/>
      <point x="476" y="174" type="line"/>
      <point x="726" y="577" type="line"/>
      <point x="483" y="577" type="line"/>
      <point x="391" y="412" type="line"/>
      <point x="362" y="339" type="line"/>
      <point x="354" y="339" type="line"/>
      <point x="326" y="412" type="line"/>
      <point x="231" y="577" type="line"/>
      <point x="-10" y="577" type="line"/>
      <point x="242" y="174" type="line"/>
    </contour>
    <contour>
      <point x="271" y="631" type="line"/>
      <point x="426" y="638" type="line"/>
      <point x="372" y="802" type="line"/>
      <point x="148" y="802" type="line"/>
    </contour>
  </outline>
</glyph>
<glyph name="Zdotaccent.sc" format="1">
  <advance width="686"/>
  <outline>
    <contour>
      <point x="39" y="0" type="line"/>
      <point x="651" y="0" type="line"/>
      <point x="651" y="165" type="line"/>
      <point x="321" y="165" type="line"/>
      <point x="321" y="173" type="line"/>
      <point x="636" y="435" type="line"/>
      <point x="636" y="577" type="line"/>
      <point x="47" y="577" type="line"/>
      <point x="47" y="413" type="line"/>
      <point x="348" y="413" type="line"/>
      <point x="348" y="404" type="line"/>
      <point x="39" y="148" type="line"/>
    </contour>
    <contour>
      <point x="336" y="613" type="curve" smooth="yes"/>
      <point x="422" y="613"/>
      <point x="450" y="649"/>
      <point x="450" y="722" type="curve" smooth="yes"/>
      <point x="450" y="794"/>
      <point x="422" y="831"/>
      <point x="336" y="831" type="curve" smooth="yes"/>
      <point x="253" y="831"/>
      <point x="221" y="797"/>
      <point x="221" y="722" type="curve" smooth="yes"/>
      <point x="221" y="645"/>
      <point x="253" y="613"/>
    </contour>
  </outline>
</glyph>
<glyph name="acute.cap" format="1">
  <advance width="334"/>
  <outline>
    <contour>
      <point x="111" y="885" type="move" name="_topUC"/>
    </contour>
    <contour>
      <point x="196" y="807" type="line"/>
      <point x="328" y="1008" type="line"/>
      <point x="93" y="1008" type="line"/>
      <point x="31" y="817" type="line"/>
    </contour>
  </outline>
</glyph>
<glyph name="braceleft.sc" format="1">
  <advance width="349"/>
  <outline>
    <contour>
      <point x="36" y="199" type="line"/>
      <point x="78" y="199"/>
      <point x="85" y="180"/>
      <point x="85" y="143" type="curve" smooth="yes"/>
      <point x="85" y="-26" type="line" smooth="yes"/>
      <point x="85" y="-98"/>
      <point x="118" y="-125"/>
      <point x="190" y="-125" type="curve" smooth="yes"/>
      <point x="212" y="-125"/>
      <point x="285" y="-122"/>
      <point x="296" y="-121" type="curve"/>
      <point x="296" y="10" type="line"/>
      <point x="293" y="10" type="line" smooth="yes"/>
      <point x="269" y="10"/>
      <point x="257" y="20"/>
      <point x="257" y="43" type="curve" smooth="yes"/>
      <point x="257" y="189" type="line" smooth="yes"/>
      <point x="257" y="237"/>
      <point x="225" y="271"/>
      <point x="180" y="276" type="curve"/>
      <point x="225" y="283"/>
      <point x="257" y="317"/>
      <point x="257" y="366" type="curve" smooth="yes"/>
      <point x="257" y="510" type="line" smooth="yes"/>
      <point x="257" y="531"/>
      <point x="269" y="542"/>
      <point x="293" y="542" type="curve" smooth="yes"/>
      <point x="296" y="542" type="line"/>
      <point x="296" y="673" type="line"/>
      <point x="285" y="675"/>
      <point x="212" y="677"/>
      <point x="190" y="677" type="curve" smooth="yes"/>
      <point x="118" y="677"/>
      <point x="85" y="650"/>
      <point x="85" y="578" type="curve" smooth="yes"/>
      <point x="85" y="411" type="line" smooth="yes"/>
      <point x="85" y="374"/>
      <point x="78" y="354"/>
      <point x="36" y="354" type="curve"/>
    </contour>
  </outline>
</glyph>
<glyph name="caron.alt" format="1">
  <advance width="262"/>
  <outline>
    <contour>
      <point x="51" y="674" type="move" name="_caronalt"/>
    </contour>
    <contour>
      <point x="51" y="580" type="line"/>
      <point x="176" y="580" type="line"/>
      <point x="229" y="808" type="line"/>
      <point x="51" y="808" type="line"/>
    </contour>
  </outline>
</glyph>
<glyph name="comma.tab" format="1">
  <advance width="335"/>
  <outline>
    <contour>
      <point x="196" y="-155" type="line"/>
      <point x="298" y="217" type="line"/>
      <point x="67" y="217" type="line"/>
      <point x="25" y="-145" type="line"/>
    </contour>
  </outline>
</glyph>
<glyph name="currency.ss01" format="1">
  <advance width="796"/>
  <outline>
    <contour>
      <point x="177" y="-150" type="line"/>
      <point x="344" y="-150" type="line"/>
      <point x="344" y="104" type="line"/>
      <point x="177" y="102" type="line"/>
    </contour>
    <contour>
      <point x="177" y="664" type="line"/>
      <point x="344" y="668" type="line"/>
      <point x="344" y="890" type="line"/>
      <point x="177" y="890" type="line"/>
    </contour>
    <contour>
      <point x="434" y="-150" type="line"/>
      <point x="600" y="-150" type="line"/>
      <point x="600" y="104" type="line"/>
      <point x="434" y="102" type="line"/>
    </contour>
    <contour>
      <point x="434" y="664" type="line"/>
      <point x="600" y="668" type="line"/>
      <point x="600" y="890" type="line"/>
      <point x="434" y="890" type="line"/>
    </contour>
    <component base="B" xOffset="13"/>
  </outline>
</glyph>
<glyph name="dieresis.cap" format="1">
  <advance width="651"/>
  <outline>
    <contour>
      <point x="323" y="885" type="move" name="_topUC"/>
    </contour>
    <contour>
      <point x="164" y="794" type="curve" smooth="yes"/>
      <point x="254" y="794"/>
      <point x="285" y="833"/>
      <point x="285" y="912" type="curve" smooth="yes"/>
      <point x="285" y="991"/>
      <point x="254" y="1030"/>
      <point x="164" y="1030" type="curve" smooth="yes"/>
      <point x="76" y="1030"/>
      <point x="42" y="994"/>
      <point x="42" y="912" type="curve" smooth="yes"/>
      <point x="42" y="829"/>
      <point x="76" y="794"/>
    </contour>
    <contour>
      <point x="485" y="794" type="curve" smooth="yes"/>
      <point x="575" y="794"/>
      <point x="606" y="833"/>
      <point x="606" y="912" type="curve" smooth="yes"/>
      <point x="606" y="991"/>
      <point x="575" y="1030"/>
      <point x="485" y="1030" type="curve" smooth="yes"/>
      <point x="397" y="1030"/>
      <point x="364" y="994"/>
      <point x="364" y="912" type="curve" smooth="yes"/>
      <point x="364" y="829"/>
      <point x="397" y="794"/>
    </contour>
  </outline>
</glyph>
<glyph name="eight.numerator" format="1">
  <advance width="610"/>
  <outline>
    <contour>
      <point x="311" y="194" type="curve" smooth="yes"/>
      <point x="498" y="194"/>
      <point x="582" y="248"/>
      <point x="582" y="367" type="curve" smooth="yes"/>
      <point x="582" y="422"/>
      <point x="560" y="464"/>
      <point x="517" y="493" type="curve"/>
      <point x="553" y="517"/>
      <point x="567" y="546"/>
      <point x="567" y="593" type="curve" smooth="yes"/>
      <point x="567" y="692"/>
      <point x="470" y="753"/>
      <point x="311" y="753" type="curve" smooth="yes"/>
      <point x="141" y="753"/>
      <point x="40" y="693"/>
      <point x="40" y="593" type="curve" smooth="yes"/>
      <point x="40" y="544"/>
      <point x="62" y="502"/>
      <point x="102" y="476" type="curve"/>
      <point x="51" y="447"/>
      <point x="27" y="406"/>
      <point x="27" y="350" type="curve" smooth="yes"/>
      <point x="27" y="245"/>
      <point x="120" y="194"/>
    </contour>
    <contour>
      <point x="311" y="323" type="curve" smooth="yes"/>
      <point x="257" y="323"/>
      <point x="222" y="343"/>
      <point x="222" y="374" type="curve" smooth="yes"/>
      <point x="222" y="389"/>
      <point x="234" y="409"/>
      <point x="256" y="429" type="curve"/>
      <point x="270" y="426" type="line" smooth="yes"/>
      <point x="355" y="407"/>
      <point x="387" y="392"/>
      <point x="387" y="372" type="curve" smooth="yes"/>
      <point x="387" y="337"/>
      <point x="366" y="323"/>
    </contour>
    <contour>
      <point x="342" y="531" type="curve"/>
      <point x="323" y="534" type="line" smooth="yes"/>
      <point x="262" y="544"/>
      <point x="235" y="560"/>
      <point x="235" y="588" type="curve" smooth="yes"/>
      <point x="235" y="610"/>
      <point x="264" y="624"/>
      <point x="311" y="624" type="curve" smooth="yes"/>
      <point x="348" y="624"/>
      <point x="372" y="608"/>
      <point x="372" y="584" type="curve" smooth="yes"/>
      <point x="372" y="567"/>
      <point x="358" y="542"/>
    </contour>
  </outline>
</glyph>
<glyph name="grave.cap" format="1">
  <advance width="342"/>
  <outline>
    <contour>
      <point x="224" y="885" type="move" name="_topUC"/>
    </contour>
    <contour>
      <point x="302" y="817" type="line"/>
      <point x="241" y="1008" type="line"/>
      <point x="5" y="1008" type="line"/>
      <point x="138" y="807" type="line"/>
    </contour>
  </outline>
</glyph>
<glyph name="minus.tab" format="1">
  <advance width="670"/>
  <outline>
    <contour>
      <point x="86" y="303" type="line"/>
      <point x="583" y="303" type="line"/>
      <point x="583" y="437" type="line"/>
      <point x="86" y="437" type="line"/>
    </contour>
  </outline>
</glyph>
<glyph name="multiply.tab" format="1">
  <advance width="670"/>
  <outline>
    <contour>
      <point x="172" y="140" type="line"/>
      <point x="335" y="279" type="line"/>
      <point x="498" y="140" type="line"/>
      <point x="600" y="235" type="line"/>
      <point x="441" y="370" type="line"/>
      <point x="600" y="505" type="line"/>
      <point x="497" y="600" type="line"/>
      <point x="334" y="461" type="line"/>
      <point x="172" y="600" type="line"/>
      <point x="70" y="505" type="line"/>
      <point x="228" y="370" type="line"/>
      <point x="70" y="235" type="line"/>
    </contour>
  </outline>
</glyph>
<glyph name="nine.denominator" format="1">
  <advance width="611"/>
  <outline>
    <contour>
      <point x="214" y="-6" type="curve" smooth="yes"/>
      <point x="459" y="-6"/>
      <point x="584" y="96"/>
      <point x="584" y="297" type="curve" smooth="yes"/>
      <point x="584" y="462"/>
      <point x="484" y="553"/>
      <point x="301" y="553" type="curve"/>
      <point x="128" y="553"/>
      <point x="23" y="478"/>
      <point x="23" y="355" type="curve" smooth="yes"/>
      <point x="23" y="253"/>
      <point x="112" y="183"/>
      <point x="243" y="183" type="curve" smooth="yes"/>
      <point x="300" y="183"/>
      <point x="354" y="198"/>
      <point x="390" y="224" type="curve"/>
      <point x="365" y="163"/>
      <point x="315" y="140"/>
      <point x="207" y="140" type="curve" smooth="yes"/>
      <point x="182" y="140"/>
      <point x="159" y="142"/>
      <point x="89" y="150" type="curve"/>
      <point x="59" y="9" type="line"/>
      <point x="119" y="-1"/>
      <point x="170" y="-6"/>
    </contour>
    <contour>
      <point x="301" y="311" type="curve" smooth="yes"/>
      <point x="244" y="311"/>
      <point x="220" y="325"/>
      <point x="220" y="359" type="curve" smooth="yes"/>
      <point x="220" y="394"/>
      <point x="245" y="410"/>
      <point x="301" y="410" type="curve"/>
      <point x="356" y="410"/>
      <point x="383" y="386"/>
      <point x="390" y="328" type="curve"/>
      <point x="367" y="318"/>
      <point x="332" y="311"/>
    </contour>
  </outline>
</glyph>
<glyph name="nine.tosf" format="1">
  <advance width="670"/>
  <outline>
    <contour>
      <point x="313" y="590" type="curve" smooth="yes"/>
      <point x="129" y="590"/>
      <point x="6" y="490"/>
      <point x="6" y="342" type="curve" smooth="yes"/>
      <point x="6" y="214"/>
      <point x="109" y="132"/>
      <point x="267" y="132" type="curve" smooth="yes"/>
      <point x="332" y="132"/>
      <point x="386" y="148"/>
      <point x="422" y="178" type="curve"/>
      <point x="406" y="80"/>
      <point x="348" y="43"/>
      <point x="217" y="43" type="curve" smooth="yes"/>
      <point x="183" y="43"/>
      <point x="143" y="47"/>
      <point x="80" y="58" type="curve"/>
      <point x="51" y="-101" type="line"/>
      <point x="119" y="-115"/>
      <point x="177" y="-121"/>
      <point x="226" y="-121" type="curve" smooth="yes"/>
      <point x="512" y="-121"/>
      <point x="653" y="0"/>
      <point x="653" y="244" type="curve" smooth="yes"/>
      <point x="653" y="468"/>
      <point x="532" y="590"/>
    </contour>
    <contour>
      <point x="327" y="270" type="curve" smooth="yes"/>
      <point x="266" y="270"/>
      <point x="242" y="293"/>
      <point x="242" y="348" type="curve" smooth="yes"/>
      <point x="242" y="407"/>
      <point x="265" y="431"/>
      <point x="327" y="431" type="curve" smooth="yes"/>
      <point x="386" y="431"/>
      <point x="416" y="394"/>
      <point x="424" y="306" type="curve"/>
      <point x="405" y="285"/>
      <point x="365" y="270"/>
    </contour>
  </outline>
</glyph>
<glyph name="one.denominator" format="1">
  <advance width="432"/>
  <outline>
    <contour>
      <point x="177" y="0" type="line"/>
      <point x="367" y="0" type="line"/>
      <point x="367" y="546" type="line"/>
      <point x="228" y="546" type="line"/>
      <point x="7" y="455" type="line"/>
      <point x="7" y="435" type="line"/>
      <point x="29" y="333" type="line"/>
      <point x="32" y="333" type="line"/>
      <point x="177" y="354" type="line"/>
    </contour>
  </outline>
</glyph>
<glyph name="parenleft.sc" format="1">
  <advance width="379"/>
  <outline>
    <contour>
      <point x="174" y="-125" type="curve"/>
      <point x="365" y="-125" type="line"/>
      <point x="365" y="-122" type="line"/>
      <point x="273" y="-3"/>
      <point x="209" y="138"/>
      <point x="209" y="276" type="curve" smooth="yes"/>
      <point x="209" y="415"/>
      <point x="273" y="556"/>
      <point x="365" y="674" type="curve"/>
      <point x="365" y="677" type="line"/>
      <point x="174" y="677" type="line"/>
      <point x="83" y="559"/>
      <point x="37" y="417"/>
      <point x="37" y="276" type="curve" smooth="yes"/>
      <point x="37" y="135"/>
      <point x="83" y="-7"/>
    </contour>
  </outline>
</glyph>
<glyph name="plus.tab" format="1">
  <advance width="670"/>
  <outline>
    <contour>
      <point x="61" y="303" type="line"/>
      <point x="263" y="303" type="line"/>
      <point x="263" y="148" type="line"/>
      <point x="407" y="148" type="line"/>
      <point x="407" y="303" type="line"/>
      <point x="609" y="303" type="line"/>
      <point x="609" y="437" type="line"/>
      <point x="407" y="437" type="line"/>
      <point x="407" y="592" type="line"/>
      <point x="263" y="592" type="line"/>
      <point x="263" y="437" type="line"/>
      <point x="61" y="437" type="line"/>
    </contour>
  </outline>
</glyph>
<glyph name="quotedbl.tab" format="1">
  <advance width="335"/>
  <outline>
    <contour>
      <point x="-59" y="808" type="line"/>
      <point x="-59" y="480" type="line"/>
      <point x="72" y="480" type="line"/>
      <point x="131" y="804" type="line"/>
      <point x="131" y="808" type="line"/>
    </contour>
    <contour>
      <point x="230" y="808" type="line"/>
      <point x="230" y="480" type="line"/>
      <point x="361" y="480" type="line"/>
      <point x="419" y="804" type="line"/>
      <point x="419" y="808" type="line"/>
    </contour>
  </outline>
</glyph>
<glyph name="seven.denominator" format="1">
  <advance width="481"/>
  <outline>
    <contour>
      <point x="216" y="-19" type="line"/>
      <point x="94" y="-4" type="line"/>
      <point x="78" y="34" type="line"/>
      <point x="312" y="458" type="line"/>
      <point x="325" y="393" type="line"/>
      <point x="17" y="393" type="line"/>
      <point x="17" y="516" type="line"/>
      <point x="41" y="540" type="line"/>
      <point x="454" y="540" type="line"/>
      <point x="476" y="461" type="line"/>
      <point x="476" y="437" type="line"/>
      <point x="259" y="-1" type="line"/>
    </contour>
  </outline>
</glyph>
<glyph name="six.denominator" format="1">
  <advance width="611"/>
  <outline>
    <contour>
      <point x="310" y="-6" type="curve" smooth="yes"/>
      <point x="483" y="-6"/>
      <point x="588" y="69"/>
      <point x="588" y="192" type="curve" smooth="yes"/>
      <point x="588" y="296"/>
      <point x="496" y="364"/>
      <point x="368" y="364" type="curve" smooth="yes"/>
      <point x="313" y="364"/>
      <point x="259" y="351"/>
      <point x="221" y="323" type="curve"/>
      <point x="245" y="385"/>
      <point x="297" y="407"/>
      <point x="404" y="407" type="curve" smooth="yes"/>
      <point x="437" y="407"/>
      <point x="473" y="403"/>
      <point x="522" y="397" type="curve"/>
      <point x="552" y="538" type="line"/>
      <point x="492" y="548"/>
      <point x="441" y="553"/>
      <point x="397" y="553" type="curve" smooth="yes"/>
      <point x="152" y="553"/>
      <point x="27" y="451"/>
      <point x="27" y="250" type="curve" smooth="yes"/>
      <point x="27" y="82"/>
      <point x="130" y="-6"/>
    </contour>
    <contour>
      <point x="310" y="137" type="curve" smooth="yes"/>
      <point x="255" y="137"/>
      <point x="228" y="161"/>
      <point x="221" y="219" type="curve"/>
      <point x="240" y="229"/>
      <point x="275" y="236"/>
      <point x="310" y="236" type="curve" smooth="yes"/>
      <point x="367" y="236"/>
      <point x="391" y="222"/>
      <point x="391" y="188" type="curve" smooth="yes"/>
      <point x="391" y="153"/>
      <point x="366" y="137"/>
    </contour>
  </outline>
</glyph>
<glyph name="six.osf" format="1">
  <advance width="745"/>
  <outline>
    <contour>
      <point x="397" y="-20" type="curve" smooth="yes"/>
      <point x="593" y="-20"/>
      <point x="725" y="80"/>
      <point x="725" y="228" type="curve" smooth="yes"/>
      <point x="725" y="356"/>
      <point x="614" y="438"/>
      <point x="443" y="438" type="curve" smooth="yes"/>
      <point x="340" y="438"/>
      <point x="260" y="402"/>
      <point x="229" y="342" type="curve"/>
      <point x="257" y="248" type="line"/>
      <point x="272" y="276"/>
      <point x="329" y="300"/>
      <point x="382" y="300" type="curve" smooth="yes"/>
      <point x="453" y="300"/>
      <point x="483" y="277"/>
      <point x="483" y="222" type="curve" smooth="yes"/>
      <point x="483" y="163"/>
      <point x="454" y="139"/>
      <point x="382" y="139" type="curve" smooth="yes"/>
      <point x="299" y="139"/>
      <point x="265" y="193"/>
      <point x="265" y="325" type="curve" smooth="yes"/>
      <point x="265" y="474"/>
      <point x="326" y="527"/>
      <point x="498" y="527" type="curve" smooth="yes"/>
      <point x="536" y="527"/>
      <point x="579" y="523"/>
      <point x="646" y="512" type="curve"/>
      <point x="675" y="671" type="line"/>
      <point x="603" y="685"/>
      <point x="542" y="691"/>
      <point x="489" y="691" type="curve" smooth="yes"/>
      <point x="185" y="691"/>
      <point x="34" y="570"/>
      <point x="34" y="326" type="curve" smooth="yes"/>
      <point x="34" y="102"/>
      <point x="162" y="-20"/>
    </contour>
  </outline>
</glyph>
<glyph name="six.tf" format="1">
  <advance width="670"/>
  <outline>
    <contour>
      <point x="344" y="-10" type="curve" smooth="yes"/>
      <point x="549" y="-10"/>
      <point x="674" y="90"/>
      <point x="674" y="253" type="curve" smooth="yes"/>
      <point x="674" y="390"/>
      <point x="568" y="478"/>
      <point x="405" y="478" type="curve" smooth="yes"/>
      <point x="341" y="478"/>
      <point x="287" y="463"/>
      <point x="250" y="436" type="curve"/>
      <point x="269" y="546"/>
      <point x="328" y="586"/>
      <point x="456" y="586" type="curve" smooth="yes"/>
      <point x="494" y="586"/>
      <point x="537" y="581"/>
      <point x="597" y="571" type="curve"/>
      <point x="626" y="730" type="line"/>
      <point x="560" y="743"/>
      <point x="501" y="750"/>
      <point x="447" y="750" type="curve" smooth="yes"/>
      <point x="157" y="750"/>
      <point x="11" y="611"/>
      <point x="11" y="336" type="curve" smooth="yes"/>
      <point x="11" y="109"/>
      <point x="132" y="-10"/>
    </contour>
    <contour>
      <point x="344" y="340" type="curve" smooth="yes"/>
      <point x="409" y="340"/>
      <point x="435" y="313"/>
      <point x="435" y="247" type="curve" smooth="yes"/>
      <point x="435" y="179"/>
      <point x="408" y="149"/>
      <point x="344" y="149" type="curve" smooth="yes"/>
      <point x="277" y="149"/>
      <point x="247" y="195"/>
      <point x="243" y="305" type="curve"/>
      <point x="265" y="325"/>
      <point x="305" y="340"/>
    </contour>
  </outline>
</glyph>
<glyph name="three.osf" format="1">
  <advance width="650"/>
  <outline>
    <contour>
      <point x="276" y="-174" type="curve" smooth="yes"/>
      <point x="505" y="-174"/>
      <point x="625" y="-99"/>
      <point x="625" y="46" type="curve" smooth="yes"/>
      <point x="625" y="128"/>
      <point x="566" y="194"/>
      <point x="473" y="215" type="curve"/>
      <point x="473" y="225" type="line"/>
      <point x="557" y="252"/>
      <point x="605" y="309"/>
      <point x="605" y="382" type="curve" smooth="yes"/>
      <point x="605" y="520"/>
      <point x="494" y="589"/>
      <point x="272" y="589" type="curve" smooth="yes"/>
      <point x="222" y="589"/>
      <point x="96" y="578"/>
      <point x="37" y="569" type="curve"/>
      <point x="37" y="394" type="line"/>
      <point x="41" y="394" type="line"/>
      <point x="101" y="402"/>
      <point x="186" y="411"/>
      <point x="231" y="411" type="curve" smooth="yes"/>
      <point x="337" y="411"/>
      <point x="363" y="400"/>
      <point x="363" y="355" type="curve" smooth="yes"/>
      <point x="363" y="304"/>
      <point x="337" y="293"/>
      <point x="210" y="293" type="curve" smooth="yes"/>
      <point x="132" y="293" type="line"/>
      <point x="132" y="135" type="line"/>
      <point x="211" y="135" type="line" smooth="yes"/>
      <point x="353" y="135"/>
      <point x="382" y="123"/>
      <point x="382" y="64" type="curve" smooth="yes"/>
      <point x="382" y="8"/>
      <point x="360" y="-2"/>
      <point x="234" y="-2" type="curve" smooth="yes"/>
      <point x="182" y="-2"/>
      <point x="80" y="8"/>
      <point x="41" y="16" type="curve"/>
      <point x="37" y="16" type="line"/>
      <point x="37" y="-157" type="line"/>
      <point x="70" y="-166"/>
      <point x="186" y="-174"/>
    </contour>
  </outline>
</glyph>
<glyph name="three.tosf" format="1">
  <advance width="670"/>
  <outline>
    <contour>
      <point x="285" y="-174" type="curve" smooth="yes"/>
      <point x="519" y="-174"/>
      <point x="641" y="-99"/>
      <point x="641" y="46" type="curve" smooth="yes"/>
      <point x="641" y="128"/>
      <point x="581" y="194"/>
      <point x="486" y="215" type="curve"/>
      <point x="486" y="225" type="line"/>
      <point x="572" y="252"/>
      <point x="621" y="309"/>
      <point x="621" y="382" type="curve" smooth="yes"/>
      <point x="621" y="520"/>
      <point x="507" y="589"/>
      <point x="281" y="589" type="curve" smooth="yes"/>
      <point x="230" y="589"/>
      <point x="102" y="578"/>
      <point x="42" y="569" type="curve"/>
      <point x="42" y="394" type="line"/>
      <point x="46" y="394" type="line"/>
      <point x="108" y="402"/>
      <point x="194" y="411"/>
      <point x="240" y="411" type="curve" smooth="yes"/>
      <point x="349" y="411"/>
      <point x="377" y="400"/>
      <point x="377" y="355" type="curve" smooth="yes"/>
      <point x="377" y="304"/>
      <point x="349" y="293"/>
      <point x="219" y="293" type="curve" smooth="yes"/>
      <point x="139" y="293" type="line"/>
      <point x="139" y="135" type="line"/>
      <point x="220" y="135" type="line" smooth="yes"/>
      <point x="366" y="135"/>
      <point x="396" y="123"/>
      <point x="396" y="64" type="curve" smooth="yes"/>
      <point x="396" y="8"/>
      <point x="372" y="-2"/>
      <point x="243" y="-2" type="curve" smooth="yes"/>
      <point x="190" y="-2"/>
      <point x="86" y="8"/>
      <point x="46" y="16" type="curve"/>
      <point x="42" y="16" type="line"/>
      <point x="42" y="-157" type="line"/>
      <point x="76" y="-166"/>
      <point x="194" y="-174"/>
    </contour>
  </outline>
</glyph>
<glyph name="two.tf" format="1">
  <advance width="670"/>
  <outline>
    <contour>
      <point x="24" y="0" type="line"/>
      <point x="635" y="0" type="line"/>
      <point x="635" y="176" type="line"/>
      <point x="316" y="176" type="line"/>
      <point x="316" y="185" type="line" smooth="yes"/>
      <point x="316" y="208"/>
      <point x="376" y="224"/>
      <point x="444" y="256" type="curve" smooth="yes"/>
      <point x="533" y="298"/>
      <point x="635" y="368"/>
      <point x="635" y="518" type="curve" smooth="yes"/>
      <point x="635" y="674"/>
      <point x="539" y="750"/>
      <point x="322" y="750" type="curve" smooth="yes"/>
      <point x="250" y="750"/>
      <point x="171" y="743"/>
      <point x="48" y="725" type="curve"/>
      <point x="61" y="542" type="line"/>
      <point x="109" y="549"/>
      <point x="197" y="566"/>
      <point x="273" y="566" type="curve" smooth="yes"/>
      <point x="364" y="566"/>
      <point x="403" y="544"/>
      <point x="403" y="495" type="curve" smooth="yes"/>
      <point x="403" y="441"/>
      <point x="347" y="414"/>
      <point x="278" y="387" type="curve" smooth="yes"/>
      <point x="167" y="344"/>
      <point x="24" y="291"/>
      <point x="24" y="106" type="curve" smooth="yes"/>
    </contour>
  </outline>
</glyph>
<glyph name="uni021A.sc" format="1">
  <advance width="656"/>
  <outline>
    <contour>
      <point x="216" y="0" type="line"/>
      <point x="439" y="0" type="line"/>
      <point x="439" y="413" type="line"/>
      <point x="632" y="413" type="line"/>
      <point x="632" y="577" type="line"/>
      <point x="24" y="577" type="line"/>
      <point x="24" y="413" type="line"/>
      <point x="216" y="413" type="line"/>
    </contour>
    <contour>
      <point x="188" y="-172" type="line"/>
      <point x="350" y="-172" type="line"/>
      <point x="446" y="-55" type="line"/>
      <point x="222" y="-55" type="line"/>
    </contour>
  </outline>
</glyph>
<glyph name="zero.osf" format="1">
  <advance width="782"/>
  <outline>
    <contour>
      <point x="391" y="-10" type="curve"/>
      <point x="618" y="-10"/>
      <point x="751" y="82"/>
      <point x="751" y="289" type="curve" smooth="yes"/>
      <point x="751" y="508"/>
      <point x="618" y="590"/>
      <point x="391" y="590" type="curve" smooth="yes"/>
      <point x="165" y="590"/>
      <point x="31" y="508"/>
      <point x="31" y="289" type="curve" smooth="yes"/>
      <point x="31" y="82"/>
      <point x="165" y="-10"/>
    </contour>
    <contour>
      <point x="391" y="173" type="curve"/>
      <point x="300" y="173"/>
      <point x="264" y="193"/>
      <point x="264" y="289" type="curve" smooth="yes"/>
      <point x="264" y="387"/>
      <point x="300" y="407"/>
      <point x="391" y="407" type="curve" smooth="yes"/>
      <point x="479" y="407"/>
      <point x="518" y="387"/>
      <point x="518" y="289" type="curve" smooth="yes"/>
      <point x="518" y="193"/>
      <point x="479" y="173"/>
    </contour>
  </outline>
</glyph>
